<svg id="fe2183d9-6727-4f42-b788-8ccce37b69bc" data-name="svg509" xmlns="http://www.w3.org/2000/svg" width="359.39999" height="133.89999" viewBox="0 0 359.39999 133.89999">
  <title>footerLeft</title>
  <g id="dbc437ea-a81c-4d30-8b10-c0562b82521b" data-name="g66">
    <path id="ff103bd3-76aa-4435-b7ca-f22e2362a1ff" data-name="path48" d="M226.3,73.8a2.9,2.9,0,0,1,5.8,0V94h29.6V73.8a2.90193,2.90193,0,0,1,2.9-2.8999A2.96846,2.96846,0,0,1,267.5,73.8v46a2.9,2.9,0,0,1-5.8,0V99.3H232.1v20.5a2.90193,2.90193,0,0,1-2.9,2.8999,2.96846,2.96846,0,0,1-2.9-2.8999Z" fill="#fff"/>
    <path id="17e1264b-2f1e-4e52-8cfa-659515b795d1" data-name="path50" d="M297.2,97.39989c7.7,0,13.2-3.8999,13.2-10.5v-.1001c0-6.3-4.8-10.1001-13.1-10.1001H281.5v20.8h15.7Zm-21.5-23.2A2.90193,2.90193,0,0,1,278.6,71.3h19.2c6.3,0,11.3,1.8999,14.6,5.1001a14.20043,14.20043,0,0,1,4,10.1001v.1001c0,8.3999-5.7,13.3-13.7,14.8l12.7,16.3999a3.18538,3.18538,0,0,1,1,2.1001,3.1182,3.1182,0,0,1-2.9,2.8999,3.39234,3.39234,0,0,1-2.7-1.5l-14.4-18.7H281.7v17.3a2.90193,2.90193,0,0,1-2.9,2.8999,2.96846,2.96846,0,0,1-2.9-2.8999V74.19994Z" fill="#fff"/>
    <path id="0d67ed22-b7da-4dc3-b51b-1bde207c3e6f" data-name="path52" d="M336,76.59984H321.1a2.6505,2.6505,0,1,1,0-5.3h35.6a2.68874,2.68874,0,0,1,2.7,2.7,2.60581,2.60581,0,0,1-2.7,2.6001H341.8v43.3a2.9,2.9,0,0,1-5.8,0Z" fill="#fff"/>
    <path id="3b57f1cd-3cd5-427f-b3d2-0e6ee87bd9f6" data-name="path54" d="M225.2,17.09984a5.6,5.6,0,1,1,11.2,0v15.1001h20.8V17.09984a5.59082,5.59082,0,0,1,5.6-5.6001,5.52824,5.52824,0,0,1,5.6,5.6001v40.8a5.6,5.6,0,1,1-11.2,0v-15.3H236.4v15.3a5.6,5.6,0,1,1-11.2,0Z" fill="#fff"/>
    <path id="ed7f3733-34fe-42d2-80e8-55075f2bf32a" data-name="path56" d="M277.4,57.69994a5.40031,5.40031,0,0,1-2.1-4.2,5.18745,5.18745,0,0,1,5.3-5.2,5.27424,5.27424,0,0,1,3.2,1,21.30531,21.30531,0,0,0,13.1,4.6001c4.6,0,7.4-1.8,7.4-4.8V49c0-2.8-1.8-4.3-10.3-6.5-10.3-2.6001-17-5.5-17-15.6001v-.1001c0-9.3,7.5-15.3999,17.9-15.3999a29.81424,29.81424,0,0,1,16.2,4.5,5.254,5.254,0,0,1,2.5,4.5,5.18745,5.18745,0,0,1-5.3,5.2,5.73583,5.73583,0,0,1-2.9-.8,20.998,20.998,0,0,0-10.8-3.3999c-4.3,0-6.6,2-6.6,4.5V26c0,3.3999,2.2,4.5,11.1,6.7,10.4,2.7,16.2,6.3999,16.2,15.3v.1001c0,10.2-7.8,15.8999-18.8,15.8999a34.56994,34.56994,0,0,1-19.1-6.3" fill="#fff"/>
    <path id="757079bd-02e6-453c-b64f-849794ab5501" data-name="path58" d="M322.2,17.09984a5.6,5.6,0,1,1,11.2,0v35.7h20.9a5.0578,5.0578,0,0,1,5.1,5.1001A5.12152,5.12152,0,0,1,354.3,63H327.8a5.59082,5.59082,0,0,1-5.6-5.6001Z" fill="#fff"/>
    <path id="5f3edc18-7481-4f2a-ae34-e33f17d155fa" data-name="path60" d="M121.2,71.5c-.2,0-5.2-.1001-7.6-4.3,2.5-4.1001,7.4-4.3,7.7-4.3,4,0,7,1.8,7,4.3-.1,2.5-3,4.3-7.1,4.3m-11.1,38.8999c-1.8,1.8-5.1,1-8-1.8999a9.21813,9.21813,0,0,1-2.3-8.5,9.6258,9.6258,0,0,1,8.4,2.3999c2.9,2.8999,3.7,6.3,1.9,8m-43.4,17.8c-2.5,0-4.3-2.8999-4.3-7,0-.2.1-5.2,4.3-7.6001,4.1,2.5,4.3,7.3999,4.3,7.7,0,4-1.8,6.8999-4.3,6.8999m-35.2-20c-2.9,2.8-6.2,3.6001-8,1.8999-1.8-1.8-1-5.1001,1.9-8,.2-.2,3.8-3.6001,8.5-2.3a9.62563,9.62563,0,0,1-2.4,8.3999M12.7,71.09935c-4,0-7-1.8-7-4.3s3-4.3,7-4.3c.2,0,5.2.1001,7.6,4.3-2.4,4.1001-7.3,4.3-7.6,4.3m11.1-47.5c1.8-1.8,5.1-1,8,1.8999a9.21815,9.21815,0,0,1,2.3,8.5,9.62583,9.62583,0,0,1-8.4-2.3999c-2.8-2.8999-3.6-6.3-1.9-8m43.4-17.8c2.5,0,4.3,3,4.3,7,0,.2-.1,5.2-4.3,7.6001-4.1-2.5-4.3-7.3999-4.3-7.6001,0-4,1.8-7,4.3-7m35.3,20c2.9-2.8999,6.2-3.6001,8-1.8999,1.8,1.8,1,5.1001-1.9,8-.2.2-3.8,3.6001-8.5,2.3-1.2-4.6001,2.2-8.2,2.4-8.3999m-7.2,69.7-28.5,11.7-28.4-11.8-11.7-28.5,11.9-28.3,28.5-11.7,28.4,11.8,11.7,28.5Zm26-38.3999a16.39527,16.39527,0,0,0-10.2,4.1001l-8.6-20.8a16.05192,16.05192,0,0,0,10.2-4.3c5.2-5.2,6-12,1.9-16.2-4.2-4.1001-11-3.3999-16.2,1.8999a16.59355,16.59355,0,0,0-4.4,10l-20.8-8.7a15.9373,15.9373,0,0,0,4.1-10.3c0-7.3999-4.3-12.8-10.1-12.8-5.9,0-10.1,5.3999-10.1,12.8a16.39481,16.39481,0,0,0,4.1,10.2l-20.8,8.5a15.38751,15.38751,0,0,0-4.4-10.2c-5.3-5.2-12.1-6-16.2-1.8999-4.2,4.1001-3.4,11,1.9,16.2a16.2179,16.2179,0,0,0,10.1,4.3l-8.7,20.8a15.937,15.937,0,0,0-10.3-4.1001c-7.4,0-12.8,4.3-12.8,10.1001,0,5.8999,5.4,10.1001,12.8,10.1001A16.39526,16.39526,0,0,0,23,72.69969l8.6,20.8a16.0519,16.0519,0,0,0-10.2,4.3c-5.2,5.2-6,12.1001-1.9,16.2,4.2,4.2,11,3.3999,16.2-1.8999a16.59364,16.59364,0,0,0,4.4-10l20.8,8.7a15.9373,15.9373,0,0,0-4.1,10.3c0,7.3999,4.3,12.8,10.1,12.8,5.9,0,10.1-5.3999,10.1-12.8a16.39481,16.39481,0,0,0-4.1-10.2l20.8-8.5a15.38764,15.38764,0,0,0,4.4,10.2c5.3,5.2,12.1,6,16.2,1.8999,4.2-4.1001,3.4-11-1.9-16.2a16.21791,16.21791,0,0,0-10.1-4.3l8.7-20.7a15.937,15.937,0,0,0,10.3,4.1001c7.4,0,12.8-4.3,12.8-10.1001,0-5.8999-5.4-10.2-12.8-10.2" fill="#fff"/>
    <path id="6dd7d06b-de3f-453d-90eb-f8ddc2ee5018" data-name="path62" d="M170.4,2.89989A2.90194,2.90194,0,0,0,167.5,0a2.96846,2.96846,0,0,0-2.9,2.8999V131a2.9,2.9,0,0,0,5.8,0Z" fill="#fff"/>
    <path id="5187d78e-8014-4ae3-b89a-14c890bb40f0" data-name="path64" d="M181.9,2.89989A2.90193,2.90193,0,0,0,179,0a2.96846,2.96846,0,0,0-2.9,2.8999V131a2.9,2.9,0,0,0,5.8,0Z" fill="#fff"/>
  </g>
</svg>
