<svg xmlns="http://www.w3.org/2000/svg" xmlns:xlink="http://www.w3.org/1999/xlink" width="286.46457" height="512.23622" viewBox="-1 -1 284.46457 512.23622">
  <defs>
    <clipPath id="ada79f31-f49d-44f2-bf14-d0a7ba5424e0">
      <rect x="29.10201" y="415.15774" width="19.84252" height="19.84292" fill="none"/>
    </clipPath>
    <clipPath id="4c807903-a3b6-419a-88f3-7e279072ad20">
      <rect x="28.68594" y="341.63558" width="19.84252" height="19.8416" fill="none"/>
    </clipPath>
  </defs>
  <title>legend</title>
  <g id="d7905b8d-96ff-45db-b68e-b34758b50d97" data-name="Selite">
    <g>
      <rect width="283.46457" height="510.23622" rx="30.48677" ry="30.48677" fill="#fff" stroke="#007ac9" stroke-miterlimit="10"/>
      <g>
        <text transform="translate(86.53704 470.14484)" font-size="8" fill="#007ac9" font-family="GothamRounded-Medium, Gotham Rounded"> <tspan x="2.3999" y="0" font-size="9">© </tspan><tspan x="12.56934" y="0">Linja</tspan><tspan x="31.75342" y="0" letter-spacing="-0.01001em">s</tspan><tspan x="35.68115" y="0" letter-spacing="-0.01495em">t</tspan><tspan x="38.84961" y="0">o ja ul</tspan><tspan x="63.1377" y="0" letter-spacing="-0.01501em">k</tspan><tspan x="67.65723" y="0">onä</tspan><tspan x="82.56934" y="0" letter-spacing="-0.01489em">k</tspan><tspan x="87.08984" y="0">ö HSL</tspan><tspan font-size="9"><tspan x="2.2876" y="10">© </tspan><tspan x="12.45703" y="10" font-size="8">Linjen</tspan><tspan x="36.7373" y="10" font-size="8" letter-spacing="-0.005em">ä</tspan><tspan x="41.39307" y="10" font-size="8">t och l</tspan><tspan x="66.55273" y="10" font-size="8" letter-spacing="-0.01294em">a</tspan><tspan x="71.14551" y="10" font-size="8" letter-spacing="-0.02002em">y</tspan><tspan x="75.68164" y="10" font-size="8">out H</tspan><tspan x="97.66504" y="10" font-size="8" letter-spacing="-0.00293em">R</tspan><tspan x="103.42578" y="10" font-size="8">T</tspan></tspan><tspan font-size="10"><tspan x="17.28955" y="20"> </tspan><tspan x="20.28955" y="20" font-size="9">©</tspan><tspan x="27.75928" y="20" xml:space="preserve" font-size="8"> Open</tspan><tspan x="52.11914" y="20" font-size="8" letter-spacing="-0.005em">S</tspan><tspan x="57.19922" y="20" font-size="8">t</tspan><tspan x="60.4873" y="20" font-size="8" letter-spacing="-0.01794em">r</tspan><tspan x="63.64746" y="20" font-size="8">eetMap</tspan></tspan></text>
        <g>
          <line x1="17.10274" y1="351.79653" x2="59.71796" y2="351.79653" fill="none" stroke="#ff6319" stroke-linejoin="round" stroke-width="5.66929"/>
          <line x1="18.5938" y1="351.79653" x2="61.20903" y2="351.79653" fill="none" stroke="#fff" stroke-linejoin="round" stroke-width="2.83465" stroke-dasharray="5.66929 2.83465"/>
        </g>
        <g>
          <line x1="17.10288" y1="390.57487" x2="59.71783" y2="390.42224" fill="none" stroke="#8c4799" stroke-linejoin="round" stroke-width="5.66929"/>
          <line x1="18.59393" y1="390.56953" x2="61.20888" y2="390.41689" fill="none" stroke="#fff" stroke-linejoin="round" stroke-width="2.83465" stroke-dasharray="5.66929 2.83465"/>
        </g>
        <line x1="17.2458" y1="302.97779" x2="58.34296" y2="302.97779" fill="none" stroke="#00985f" stroke-miterlimit="10" stroke-width="4.25197"/>
        <text transform="translate(28.86672 100.55508)" font-size="11" fill="#007ac9" font-family="GothamXNarrow-Medium, Gotham XNarrow">1<tspan x="3.26709" y="0" letter-spacing="-0.00999em">0</tspan><tspan x="8.85498" y="0">2</tspan></text>
        <text transform="translate(30.00698 377.22972)" font-size="8" fill="#8c4799" font-family="GothamRounded-Medium, Gotham Rounded"><tspan letter-spacing="-0.03003em">K</tspan><tspan x="5.46387" y="0">e</tspan><tspan x="10.2959" y="0" letter-spacing="-0.02502em">r</tspan><tspan x="13.3999" y="0">a</tspan></text>
        <text transform="translate(22.7521 330.75792)" font-size="8" fill="#ff6319" font-family="GothamRounded-Medium, Gotham Rounded"><tspan letter-spacing="-0.01001em">K</tspan><tspan x="5.62402" y="0">amppi</tspan><tspan x="-1.06836" y="8" letter-spacing="-0.01001em">K</tspan><tspan x="4.55566" y="8">ampen</tspan></text>
        <rect x="49.25003" y="298.15747" width="10.70581" height="10.64063" fill="#00985f"/>
        <rect x="30.43534" y="139.39099" width="10.70581" height="10.64063" fill="#007ac9"/>
        <g clip-path="url(#ada79f31-f49d-44f2-bf14-d0a7ba5424e0)">
          <path d="M31.58185,415.15867H46.4647a2.47984,2.47984,0,0,1,2.47984,2.47984v14.88126a2.48089,2.48089,0,0,1-2.48089,2.48089H31.58238a2.48036,2.48036,0,0,1-2.48036-2.48036V417.6385A2.47984,2.47984,0,0,1,31.58185,415.15867Z" fill="#00b9e4"/>
          <path d="M33.97008,425.42683c.70837-.18544,1.249-.32245,2.19516-.525,1.23038-.26395,2.73131-.44236,2.80385-.45247.07254.01011,1.574.18852,2.80334.45247.94714.20255,1.48731.33957,2.19723.525V421.8395c0-.46949.12991-1.08014-1.08932-1.08014H40.64183v-3.23671a.38143.38143,0,0,0-.33205-.35062H37.62841a.38084.38084,0,0,0-.33153.35062v3.23671h-2.239c-1.21883,0-1.08778.61065-1.08778,1.08014Zm7.5514-3.75255a.95979.95979,0,1,1-.96034.95933.96043.96043,0,0,1,.96034-.95933m-2.55239,0a.95979.95979,0,1,1-.96086.95933.95953.95953,0,0,1,.96086-.95933m-2.55291,0a.95979.95979,0,1,1-.95931.95933.95986.95986,0,0,1,.95931-.95933m2.55291,9.54661c2.78167,0,5.55425,0,5.71.00206l.55524-4.47609s-2.05669-.55316-3.4599-.85353c-1.2182-.261-2.70149-.43926-2.8023-.45144h-.00557c-.10123.01218-1.58452.19048-2.80128.45144-1.40414.30037-3.46032.85353-3.46032.85353l.55524,4.47609c.1556-.00206,2.92726-.00206,5.70893-.00206m7.24608,24.67684H31.83827a.49628.49628,0,0,0,0,.99255h14.3769a.49628.49628,0,1,0,0-.99255" fill="#fff"/>
        </g>
        <line x1="17.2458" y1="230.78425" x2="59.80623" y2="230.78425" fill="none" stroke="#ff6319" stroke-miterlimit="10" stroke-width="4.25197"/>
        <text transform="translate(23.95376 224.44559) scale(0.98009 1)" font-size="11" fill="#007ac9" font-family="GothamXNarrow-Medium, Gotham XNarrow" letter-spacing="-0.00399em">5<tspan x="4.86194" y="0" letter-spacing="0.00005em">50</tspan></text>
        <ellipse cx="52.84309" cy="221.14078" rx="3.11811" ry="3.18113" fill="#ff6319"/>
        <ellipse cx="20.57537" cy="144.71127" rx="3.11811" ry="3.18113" fill="#007ac9"/>
        <ellipse cx="39.41323" cy="294.68667" rx="3.11811" ry="3.18113" fill="#00985f"/>
        <g>
          <path d="M29.102,191.34077a2.484,2.484,0,0,0,2.48674,2.48677H46.48394a2.47856,2.47856,0,0,0,2.46059-2.48677v-14.8952a2.47291,2.47291,0,0,0-2.46059-2.46042H31.58875a2.47847,2.47847,0,0,0-2.48674,2.46042Z" fill="#007ac9"/>
          <path d="M44.81728,176.47189a46.89864,46.89864,0,0,0-5.76774-.3701,41.95049,41.95049,0,0,0-5.82027.3701c-.60863.0793-.95248.42355-.95248.95241V189.039a.72388.72388,0,0,0,.52934.68763l.74061.13241v1.56105a.30778.30778,0,0,0,.34378.29073h1.19054a.29918.29918,0,0,0,.31753-.29073v-1.37608a35.15093,35.15093,0,0,0,3.5984.1588,36.267,36.267,0,0,0,3.65106-.1588v1.37608a.29911.29911,0,0,0,.31746.29073H44.156a.30774.30774,0,0,0,.34371-.29073v-1.56105l.74067-.13241a.64926.64926,0,0,0,.52923-.68763V177.4243c0-.52886-.34378-.87311-.95238-.95241M34.44617,188.66847a.64821.64821,0,1,1,0-1.29616.64821.64821,0,0,1,0,1.29616m9.07489,0a.64822.64822,0,1,1,0-1.29616.64821.64821,0,0,1,0,1.29616m1.19061-3.2541v.053c0,.31753-.13255.50258-.52937.55555a31.9498,31.9498,0,0,1-5.106.47626,24.76922,24.76922,0,0,1-5.159-.52923c-.39682-.07937-.52934-.23817-.52934-.55562v-7.249c0-.31742.13252-.55559.52934-.55559l10.265.05257c.39682,0,.52937.23817.52937.55559Z" fill="#fff"/>
        </g>
        <g clip-path="url(#4c807903-a3b6-419a-88f3-7e279072ad20)">
          <path d="M31.16678,341.63558H46.04722a2.48124,2.48124,0,0,1,2.48124,2.48124v14.881a2.47939,2.47939,0,0,1-2.47939,2.47939H31.16625a2.48031,2.48031,0,0,1-2.48031-2.48031V344.11641A2.48083,2.48083,0,0,1,31.16678,341.63558Z" fill="#ff6319"/>
          <path d="M40.04413,358.5379l2.65108-9.06577v-.39808a.0545.0545,0,0,1,.07615-.03828v9.50213h2.91358V344.56784h-4.286l-2.69246,9.55051-.05139.64089a.04694.04694,0,0,1-.05943,0l-.07564-.64089-2.69339-9.55051H31.524V358.5379h2.93876v-9.50213c.03426-.0131.07656.0131.07656.03828v.39808l2.63354,9.06577h2.87128" fill="#fff"/>
        </g>
        <g>
          <path d="M31.58238,379.9883H46.46417a2.48037,2.48037,0,0,1,2.48037,2.48037v14.88179a2.48023,2.48023,0,0,1-2.48023,2.48023H31.58238a2.48037,2.48037,0,0,1-2.48037-2.48037V382.46866A2.48037,2.48037,0,0,1,31.58238,379.9883Z" fill="#8c4799"/>
          <path d="M44.8304,397.60838a.47621.47621,0,1,1,0,.95242H33.24251a.47621.47621,0,1,1,0-.95242h1.16416v-1.05811h.92561v1.05811h7.4082v-1.05811h.92568v1.05811Zm.66129-13.096a7.00271,7.00271,0,0,0-1.16374-2.0106c-.55566-.50295-2.91038-1.05853-5.3178-1.05853-2.32847,0-4.7359.55559-5.26523,1.05853a6.942,6.942,0,0,0-1.19055,2.0106,6.30905,6.30905,0,0,0-.66122,2.03727v7.16964c0,.58184.185.82.95249,1.42855a2.17515,2.17515,0,0,0,1.693.635h1.64051v1.08485H41.92v-1.08485h1.61419a2.08145,2.08145,0,0,0,1.66676-.635c.76692-.6349.95242-.84672.95242-1.42855v-7.16964a7.0323,7.0323,0,0,0-.66171-2.03727M35.253,383.37486h7.54015v.42315a.58689.58689,0,0,1-.58184.58184h-6.3496a.61069.61069,0,0,1-.60872-.58184Zm.60872,11.085a.60844.60844,0,1,1,0-1.21687.609.609,0,1,1,0,1.21687m6.3496-.07938a.60844.60844,0,1,1,0-1.21687.609.609,0,1,1,0,1.21687m2.06352-8.04268-1.13749,4.92091a.98661.98661,0,0,1-.926.76748h-6.3496a.98684.98684,0,0,1-.92624-.76748l-1.16374-4.92091a.62635.62635,0,0,1,.635-.76734h9.25948a.59892.59892,0,0,1,.60865.76734" fill="#fff"/>
        </g>
        <text transform="translate(75.17631 98.3555)" font-size="9" fill="#007ac9" font-family="GothamRounded-Medium, Gotham Rounded">Bu<tspan x="12.07813" y="0" letter-spacing="-0.00998em">s</tspan><tspan x="16.49707" y="0">silinja</tspan><tspan font-family="GothamRounded-Book, Gotham Rounded"><tspan x="0" y="10">Bu</tspan><tspan x="12.04199" y="10" letter-spacing="-0.00998em">s</tspan><tspan x="16.43408" y="10">slinje</tspan><tspan x="0" y="20">Bus </tspan><tspan x="19.22363" y="20" letter-spacing="-0.02197em">r</tspan><tspan x="22.6709" y="20">ou</tspan><tspan x="34.02881" y="20" letter-spacing="-0.01503em">t</tspan><tspan x="37.5293" y="20">e</tspan></tspan></text>
        <text transform="translate(75.17631 138.3555)" font-size="9" fill="#007ac9" font-family="GothamRounded-Medium, Gotham Rounded"><tspan letter-spacing="0.01001em">P</tspan><tspan x="6.10186" y="0" letter-spacing="-0.013em">y</tspan><tspan x="11.26784" y="0">säkki, pä</tspan><tspan x="50.51634" y="0" letter-spacing="-0.005em">ä</tspan><tspan x="55.75427" y="0" letter-spacing="-0.01496em">t</tspan><tspan x="59.31867" y="0" letter-spacing="-0.00005em">e</tspan><tspan x="64.75386" y="0" letter-spacing="-0.01496em">p</tspan><tspan x="70.65797" y="0" letter-spacing="-0.01305em">y</tspan><tspan x="75.82297" y="0">säkki ja yksi suunta</tspan><tspan x="0" y="10" font-family="GothamRounded-Book, Gotham Rounded">Hållpl</tspan><tspan x="25.12699" y="10" font-family="GothamRounded-Book, Gotham Rounded" letter-spacing="-0.005em">a</tspan><tspan x="30.29297" y="10" font-family="GothamRounded-Book, Gotham Rounded">ts, ändhållpl</tspan><tspan x="83.87786" y="10" font-family="GothamRounded-Book, Gotham Rounded" letter-spacing="-0.005em">a</tspan><tspan x="89.04383" y="10" font-family="GothamRounded-Book, Gotham Rounded">ts och i en ri</tspan><tspan x="143.70803" y="10" font-family="GothamRounded-Book, Gotham Rounded" letter-spacing="-0.00892em">k</tspan><tspan x="148.73989" y="10" font-family="GothamRounded-Book, Gotham Rounded">tning </tspan><tspan x="0" y="20" font-family="GothamRounded-Book, Gotham Rounded" letter-spacing="-0.005em">S</tspan><tspan x="5.71517" y="20" font-family="GothamRounded-Book, Gotham Rounded" letter-spacing="-0.01496em">t</tspan><tspan x="9.21643" y="20" font-family="GothamRounded-Book, Gotham Rounded">o</tspan><tspan x="15.03048" y="20" font-family="GothamRounded-Book, Gotham Rounded" letter-spacing="-0.01001em">p</tspan><tspan x="20.91648" y="20" font-family="GothamRounded-Book, Gotham Rounded">, </tspan><tspan x="25.82156" y="20" font-family="GothamRounded-Book, Gotham Rounded" letter-spacing="-0.01501em">t</tspan><tspan x="29.32233" y="20" font-family="GothamRounded-Book, Gotham Rounded">erminus and one di</tspan><tspan x="114.64856" y="20" font-family="GothamRounded-Book, Gotham Rounded" letter-spacing="-0.02197em">r</tspan><tspan x="118.09548" y="20" font-family="GothamRounded-Book, Gotham Rounded">ection</tspan><tspan x="0" y="40">Bu</tspan><tspan x="12.07793" y="40" letter-spacing="-0.01001em">s</tspan><tspan x="16.49696" y="40">si</tspan><tspan x="23.58023" y="40" letter-spacing="-0.01501em">t</tspan><tspan x="27.14414" y="40">erminaali</tspan><tspan x="0" y="50" font-family="GothamRounded-Book, Gotham Rounded">Bu</tspan><tspan x="12.04171" y="50" font-family="GothamRounded-Book, Gotham Rounded" letter-spacing="-0.01001em">ss</tspan><tspan x="20.82495" y="50" font-family="GothamRounded-Book, Gotham Rounded" letter-spacing="-0.01496em">t</tspan><tspan x="24.3262" y="50" font-family="GothamRounded-Book, Gotham Rounded">erminal </tspan><tspan x="0" y="60" font-family="GothamRounded-Book, Gotham Rounded">Bus </tspan><tspan x="19.22337" y="60" font-family="GothamRounded-Book, Gotham Rounded" letter-spacing="-0.01501em">t</tspan><tspan x="22.72413" y="60" font-family="GothamRounded-Book, Gotham Rounded">erminal</tspan></text>
        <text transform="translate(75.17631 218.3555)" font-size="9" fill="#007ac9" font-family="GothamRounded-Medium, Gotham Rounded" letter-spacing="-0.00098em">Run<tspan x="17.64014" y="0" letter-spacing="-0.016em">k</tspan><tspan x="22.71582" y="0">olinja, run</tspan><tspan x="67.11182" y="0" letter-spacing="-0.01595em">k</tspan><tspan x="72.18799" y="0" letter-spacing="-0.00109em">olinja</tspan><tspan x="96.63232" y="0" letter-spacing="-0.01606em">p</tspan><tspan x="102.52686" y="0" letter-spacing="-0.01389em">y</tspan><tspan x="107.68506" y="0">säkki</tspan><tspan x="0" y="10" font-family="GothamRounded-Book, Gotham Rounded" letter-spacing="-0.00597em">S</tspan><tspan x="5.70605" y="10" font-family="GothamRounded-Book, Gotham Rounded" letter-spacing="-0.016em">t</tspan><tspan x="9.19775" y="10" font-family="GothamRounded-Book, Gotham Rounded">omlinj</tspan><tspan x="36.16113" y="10" font-family="GothamRounded-Book, Gotham Rounded" letter-spacing="-0.01107em">e</tspan><tspan x="41.38965" y="10" font-family="GothamRounded-Book, Gotham Rounded">, </tspan><tspan x="46.27637" y="10" font-family="GothamRounded-Book, Gotham Rounded" letter-spacing="-0.01096em">s</tspan><tspan x="50.65967" y="10" font-family="GothamRounded-Book, Gotham Rounded" letter-spacing="-0.016em">t</tspan><tspan x="54.15137" y="10" font-family="GothamRounded-Book, Gotham Rounded">omlinjehållpl</tspan><tspan x="110.2124" y="10" font-family="GothamRounded-Book, Gotham Rounded" letter-spacing="-0.00597em">a</tspan><tspan x="115.36963" y="10" font-family="GothamRounded-Book, Gotham Rounded">ts</tspan><tspan x="0" y="20" font-family="GothamRounded-Book, Gotham Rounded" letter-spacing="-0.08995em">T</tspan><tspan x="5.02246" y="20" font-family="GothamRounded-Book, Gotham Rounded" letter-spacing="-0.00103em">runk </tspan><tspan x="27.52148" y="20" font-family="GothamRounded-Book, Gotham Rounded" letter-spacing="-0.023em">r</tspan><tspan x="30.95947" y="20" font-family="GothamRounded-Book, Gotham Rounded">ou</tspan><tspan x="42.29932" y="20" font-family="GothamRounded-Book, Gotham Rounded" letter-spacing="-0.01595em">t</tspan><tspan x="45.7915" y="20" font-family="GothamRounded-Book, Gotham Rounded" letter-spacing="-0.01101em">e</tspan><tspan x="51.02051" y="20" font-family="GothamRounded-Book, Gotham Rounded">, trunk </tspan><tspan x="82.03467" y="20" font-family="GothamRounded-Book, Gotham Rounded" letter-spacing="-0.023em">r</tspan><tspan x="85.47217" y="20" font-family="GothamRounded-Book, Gotham Rounded" letter-spacing="-0.00109em">ou</tspan><tspan x="96.81104" y="20" font-family="GothamRounded-Book, Gotham Rounded" letter-spacing="-0.01595em">t</tspan><tspan x="100.30322" y="20" font-family="GothamRounded-Book, Gotham Rounded">e </tspan><tspan x="108.31396" y="20" font-family="GothamRounded-Book, Gotham Rounded" letter-spacing="-0.01107em">s</tspan><tspan x="112.6958" y="20" font-family="GothamRounded-Book, Gotham Rounded" letter-spacing="-0.01595em">t</tspan><tspan x="116.18799" y="20" font-family="GothamRounded-Book, Gotham Rounded">op</tspan><tspan x="0" y="40">Run</tspan><tspan x="17.64014" y="40" letter-spacing="-0.016em">k</tspan><tspan x="22.71582" y="40">olinja, run</tspan><tspan x="67.11182" y="40" letter-spacing="-0.01595em">k</tspan><tspan x="72.18799" y="40" letter-spacing="-0.00109em">olinja</tspan><tspan x="96.63232" y="40" letter-spacing="-0.01606em">p</tspan><tspan x="102.52686" y="40" letter-spacing="-0.01389em">y</tspan><tspan x="107.68506" y="40">säkki, </tspan><tspan x="135.54834" y="40" letter-spacing="-0.01606em">p</tspan><tspan x="141.44287" y="40" letter-spacing="-0.01389em">y</tspan><tspan x="146.60107" y="40">säkki</tspan><tspan x="0" y="50" font-family="GothamRounded-Book, Gotham Rounded" letter-spacing="-0.00597em">S</tspan><tspan x="5.70605" y="50" font-family="GothamRounded-Book, Gotham Rounded" letter-spacing="-0.016em">t</tspan><tspan x="9.19775" y="50" font-family="GothamRounded-Book, Gotham Rounded">omlinj</tspan><tspan x="36.16113" y="50" font-family="GothamRounded-Book, Gotham Rounded" letter-spacing="-0.01107em">e</tspan><tspan x="41.38965" y="50" font-family="GothamRounded-Book, Gotham Rounded">, </tspan><tspan x="46.27637" y="50" font-family="GothamRounded-Book, Gotham Rounded" letter-spacing="-0.01096em">s</tspan><tspan x="50.65967" y="50" font-family="GothamRounded-Book, Gotham Rounded" letter-spacing="-0.016em">t</tspan><tspan x="54.15137" y="50" font-family="GothamRounded-Book, Gotham Rounded">omlinjehållpl</tspan><tspan x="110.2124" y="50" font-family="GothamRounded-Book, Gotham Rounded" letter-spacing="-0.00597em">a</tspan><tspan x="115.36963" y="50" font-family="GothamRounded-Book, Gotham Rounded">ts, hållpl</tspan><tspan x="152.13428" y="50" font-family="GothamRounded-Book, Gotham Rounded" letter-spacing="-0.00597em">a</tspan><tspan x="157.2915" y="50" font-family="GothamRounded-Book, Gotham Rounded">ts</tspan><tspan x="0" y="60" font-family="GothamRounded-Book, Gotham Rounded" letter-spacing="-0.08995em">T</tspan><tspan x="5.02246" y="60" font-family="GothamRounded-Book, Gotham Rounded" letter-spacing="-0.00103em">runk </tspan><tspan x="27.52148" y="60" font-family="GothamRounded-Book, Gotham Rounded" letter-spacing="-0.023em">r</tspan><tspan x="30.95947" y="60" font-family="GothamRounded-Book, Gotham Rounded">ou</tspan><tspan x="42.29932" y="60" font-family="GothamRounded-Book, Gotham Rounded" letter-spacing="-0.01595em">t</tspan><tspan x="45.7915" y="60" font-family="GothamRounded-Book, Gotham Rounded" letter-spacing="-0.01101em">e</tspan><tspan x="51.02051" y="60" font-family="GothamRounded-Book, Gotham Rounded">, trunk </tspan><tspan x="82.03467" y="60" font-family="GothamRounded-Book, Gotham Rounded" letter-spacing="-0.023em">r</tspan><tspan x="85.47217" y="60" font-family="GothamRounded-Book, Gotham Rounded" letter-spacing="-0.00109em">ou</tspan><tspan x="96.81104" y="60" font-family="GothamRounded-Book, Gotham Rounded" letter-spacing="-0.01595em">t</tspan><tspan x="100.30322" y="60" font-family="GothamRounded-Book, Gotham Rounded">e </tspan><tspan x="108.31396" y="60" font-family="GothamRounded-Book, Gotham Rounded" letter-spacing="-0.01107em">s</tspan><tspan x="112.6958" y="60" font-family="GothamRounded-Book, Gotham Rounded" letter-spacing="-0.01595em">t</tspan><tspan x="116.18799" y="60" font-family="GothamRounded-Book, Gotham Rounded">o</tspan><tspan x="121.99268" y="60" font-family="GothamRounded-Book, Gotham Rounded" letter-spacing="-0.01096em">p</tspan><tspan x="127.86963" y="60" font-family="GothamRounded-Book, Gotham Rounded">, </tspan><tspan x="132.75635" y="60" font-family="GothamRounded-Book, Gotham Rounded" letter-spacing="-0.01107em">s</tspan><tspan x="137.13818" y="60" font-family="GothamRounded-Book, Gotham Rounded" letter-spacing="-0.01595em">t</tspan><tspan x="140.63037" y="60" font-family="GothamRounded-Book, Gotham Rounded">op</tspan><tspan x="0" y="80" letter-spacing="0.00098em">Raitiolinja, </tspan></text>
        <text transform="translate(125.54691 298.3555)" font-size="9" fill="#007ac9" font-family="GothamRounded-Medium, Gotham Rounded"><tspan letter-spacing="-0.01501em">p</tspan><tspan x="5.9188" y="0" letter-spacing="-0.01305em">y</tspan><tspan x="11.09701" y="0">säkki ja pä</tspan><tspan x="58.59864" y="0" letter-spacing="-0.005em">ä</tspan><tspan x="63.84979" y="0" letter-spacing="-0.01501em">t</tspan><tspan x="67.42299" y="0">e</tspan><tspan x="72.87189" y="0" letter-spacing="-0.01501em">p</tspan><tspan x="78.79069" y="0" letter-spacing="-0.01305em">y</tspan><tspan x="83.96939" y="0">säkki</tspan></text>
        <text transform="translate(75.17631 308.3555)" font-size="9" fill="#007ac9" font-family="GothamRounded-Book, Gotham Rounded" letter-spacing="0.00098em">Spår<tspan x="20.62793" y="0" letter-spacing="-0.02002em">v</tspan><tspan x="25.70361" y="0" letter-spacing="0.00103em">agnslinj</tspan><tspan x="59.63281" y="0" letter-spacing="-0.00901em">e</tspan><tspan x="64.87988" y="0">, hållpl</tspan><tspan x="93.68896" y="0" letter-spacing="-0.00401em">a</tspan><tspan x="98.86377" y="0">ts och ändhållpl</tspan><tspan x="169.5835" y="0" letter-spacing="-0.00391em">a</tspan><tspan x="174.75928" y="0">ts</tspan><tspan x="0" y="10" letter-spacing="-0.088em">T</tspan><tspan x="5.04004" y="10" letter-spacing="-0.02398em">r</tspan><tspan x="8.46924" y="10">am </tspan><tspan x="24.96582" y="10" letter-spacing="-0.02094em">r</tspan><tspan x="28.42236" y="10">ou</tspan><tspan x="39.79785" y="10" letter-spacing="-0.014em">t</tspan><tspan x="43.30762" y="10" letter-spacing="-0.00901em">e</tspan><tspan x="48.55469" y="10" letter-spacing="0.00103em">, </tspan><tspan x="53.47754" y="10" letter-spacing="-0.00895em">s</tspan><tspan x="57.87891" y="10" letter-spacing="-0.01405em">t</tspan><tspan x="61.38818" y="10">op and </tspan><tspan x="95.37256" y="10" letter-spacing="-0.014em">t</tspan><tspan x="98.88232" y="10">erminus</tspan></text>
        <text transform="translate(75.17631 338.3555)" font-size="9" fill="#007ac9" font-family="GothamRounded-Medium, Gotham Rounded">Met<tspan x="16.94679" y="0" letter-spacing="-0.018em">r</tspan><tspan x="20.50189" y="0">olinja ja met</tspan><tspan x="75.9424" y="0" letter-spacing="-0.01806em">r</tspan><tspan x="79.49701" y="0">oasema</tspan><tspan x="0" y="10" font-family="GothamRounded-Book, Gotham Rounded">Met</tspan><tspan x="16.77596" y="10" font-family="GothamRounded-Book, Gotham Rounded" letter-spacing="-0.02197em">r</tspan><tspan x="20.22337" y="10" font-family="GothamRounded-Book, Gotham Rounded">olinje och met</tspan><tspan x="83.42852" y="10" font-family="GothamRounded-Book, Gotham Rounded" letter-spacing="-0.02197em">r</tspan><tspan x="86.87544" y="10" font-family="GothamRounded-Book, Gotham Rounded">o</tspan><tspan x="92.68949" y="10" font-family="GothamRounded-Book, Gotham Rounded" letter-spacing="-0.01001em">s</tspan><tspan x="97.0811" y="10" font-family="GothamRounded-Book, Gotham Rounded">t</tspan><tspan x="100.71696" y="10" font-family="GothamRounded-Book, Gotham Rounded" letter-spacing="-0.005em">a</tspan><tspan x="105.88294" y="10" font-family="GothamRounded-Book, Gotham Rounded">tion</tspan></text>
        <text transform="translate(75.17631 358.3555)" font-size="9" fill="#007ac9" font-family="GothamRounded-Book, Gotham Rounded">Met<tspan x="16.77588" y="0" letter-spacing="-0.02197em">r</tspan><tspan x="20.22314" y="0">o line and met</tspan><tspan x="83.99463" y="0" letter-spacing="-0.02192em">r</tspan><tspan x="87.44189" y="0">o </tspan><tspan x="95.95557" y="0" letter-spacing="-0.00998em">s</tspan><tspan x="100.34717" y="0">t</tspan><tspan x="103.98291" y="0" letter-spacing="-0.00499em">a</tspan><tspan x="109.14893" y="0">tion </tspan></text>
        <text transform="translate(75.17631 378.3555)" font-size="9" fill="#007ac9" font-family="GothamRounded-Medium, Gotham Rounded">Raut<tspan x="21.0692" y="0" letter-spacing="-0.005em">a</tspan><tspan x="26.30713" y="0">tie ja asema</tspan><tspan x="0" y="10" font-family="GothamRounded-Book, Gotham Rounded">Jär</tspan><tspan x="13.83321" y="10" font-family="GothamRounded-Book, Gotham Rounded" letter-spacing="-0.01702em">n</tspan><tspan x="19.22385" y="10" font-family="GothamRounded-Book, Gotham Rounded" letter-spacing="-0.02099em">v</tspan><tspan x="24.29096" y="10" font-family="GothamRounded-Book, Gotham Rounded">äg och </tspan><tspan x="57.37494" y="10" font-family="GothamRounded-Book, Gotham Rounded" letter-spacing="-0.00995em">s</tspan><tspan x="61.76705" y="10" font-family="GothamRounded-Book, Gotham Rounded">t</tspan><tspan x="65.40291" y="10" font-family="GothamRounded-Book, Gotham Rounded" letter-spacing="-0.005em">a</tspan><tspan x="70.56888" y="10" font-family="GothamRounded-Book, Gotham Rounded">tion</tspan><tspan x="0" y="20" font-family="GothamRounded-Book, Gotham Rounded">Rail</tspan><tspan x="16.45144" y="20" font-family="GothamRounded-Book, Gotham Rounded" letter-spacing="-0.01599em">w</tspan><tspan x="24.02957" y="20" font-family="GothamRounded-Book, Gotham Rounded" letter-spacing="-0.01702em">a</tspan><tspan x="29.08738" y="20" font-family="GothamRounded-Book, Gotham Rounded">y and </tspan><tspan x="56.50122" y="20" font-family="GothamRounded-Book, Gotham Rounded" letter-spacing="-0.02496em">r</tspan><tspan x="59.92171" y="20" font-family="GothamRounded-Book, Gotham Rounded">ail</tspan><tspan x="69.86599" y="20" font-family="GothamRounded-Book, Gotham Rounded" letter-spacing="-0.01599em">w</tspan><tspan x="77.44413" y="20" font-family="GothamRounded-Book, Gotham Rounded" letter-spacing="-0.01697em">a</tspan><tspan x="82.50242" y="20" font-family="GothamRounded-Book, Gotham Rounded">y </tspan><tspan x="90.48487" y="20" font-family="GothamRounded-Book, Gotham Rounded" letter-spacing="-0.01001em">s</tspan><tspan x="94.87648" y="20" font-family="GothamRounded-Book, Gotham Rounded">t</tspan><tspan x="98.51234" y="20" font-family="GothamRounded-Book, Gotham Rounded" letter-spacing="-0.005em">a</tspan><tspan x="103.67832" y="20" font-family="GothamRounded-Book, Gotham Rounded">tion</tspan></text>
        <text transform="translate(75.17631 418.3555)" font-size="9" fill="#007ac9" font-family="GothamRounded-Medium, Gotham Rounded">Suomenlinnan lautta<tspan x="0" y="10" font-family="GothamRounded-Book, Gotham Rounded" letter-spacing="-0.01497em">S</tspan><tspan x="5.625" y="10" font-family="GothamRounded-Book, Gotham Rounded" letter-spacing="-0.02599em">v</tspan><tspan x="10.64697" y="10" font-family="GothamRounded-Book, Gotham Rounded">eabo</tspan><tspan x="32.97607" y="10" font-family="GothamRounded-Book, Gotham Rounded" letter-spacing="-0.021em">r</tspan><tspan x="36.43213" y="10" font-family="GothamRounded-Book, Gotham Rounded">gs</tspan><tspan x="46.89014" y="10" font-family="GothamRounded-Book, Gotham Rounded" letter-spacing="-0.01503em">f</tspan><tspan x="50.05762" y="10" font-family="GothamRounded-Book, Gotham Rounded">ärjan</tspan><tspan x="0" y="20" font-family="GothamRounded-Book, Gotham Rounded" letter-spacing="-0.01497em">F</tspan><tspan x="5.76904" y="20" font-family="GothamRounded-Book, Gotham Rounded">erry </tspan><tspan x="26.36963" y="20" font-family="GothamRounded-Book, Gotham Rounded" letter-spacing="-0.01503em">t</tspan><tspan x="29.87012" y="20" font-family="GothamRounded-Book, Gotham Rounded">o Suomenlinna</tspan></text>
        <text transform="translate(60.03191 36.27849)" font-size="12" fill="#007ac9" font-family="GothamRounded-Medium, Gotham Rounded"><tspan letter-spacing="-0.01001em">K</tspan><tspan x="8.43604" y="0">arttamerkkien selitykset</tspan><tspan font-family="GothamRounded-Book, Gotham Rounded"><tspan x="0" y="14" letter-spacing="-0.12699em">T</tspan><tspan x="6.25195" y="14">ec</tspan><tspan x="20.20801" y="14" letter-spacing="-0.021em">k</tspan><tspan x="26.77197" y="14">en</tspan><tspan x="41.26807" y="14" letter-spacing="-0.01001em">f</tspan><tspan x="45.55176" y="14">örklaring till </tspan><tspan x="119.97559" y="14" letter-spacing="-0.007em">k</tspan><tspan x="126.70801" y="14">artan</tspan><tspan x="157.7041" y="14" font-family="GothamRounded-Medium, Gotham Rounded"></tspan><tspan x="0" y="28" letter-spacing="-0.02999em">K</tspan><tspan x="8.20801" y="28" letter-spacing="-0.02201em">e</tspan><tspan x="15.04785" y="28">y </tspan><tspan x="25.69141" y="28" letter-spacing="-0.01497em">t</tspan><tspan x="30.35938" y="28">o map </tspan><tspan x="71.63867" y="28" letter-spacing="-0.01196em">s</tspan><tspan x="77.4707" y="28" letter-spacing="-0.00008em">ymbols</tspan></tspan></text>
        <g>
          <line x1="45.56835" y1="144.54202" x2="53.69885" y2="144.54202" fill="none" stroke="#007ac9" stroke-miterlimit="10" stroke-width="0.99213"/>
          <polygon points="50.912 148.216 52.473 144.542 50.912 140.868 59.622 144.542 50.912 148.216" fill="#007ac9"/>
        </g>
        <line x1="17.23925" y1="270.77764" x2="59.79968" y2="270.77764" fill="none" stroke="#ff6319" stroke-miterlimit="10" stroke-width="4.25197"/>
        <text transform="translate(23.94723 264.43919) scale(0.98009 1)" font-size="11" fill="#007ac9" font-family="GothamXNarrow-Medium, Gotham XNarrow" letter-spacing="-0.00399em">5<tspan x="4.86194" y="0" letter-spacing="0.00005em">50</tspan></text>
        <ellipse cx="52.83654" cy="261.13416" rx="3.11811" ry="3.18113" fill="#007ac9" stroke="#ff6319" stroke-miterlimit="10" stroke-width="2"/>
      </g>
    </g>
  </g>
</svg>
