<svg id="a8721892-076c-44c9-885a-0a3840b2904f" data-name="Selite" xmlns="http://www.w3.org/2000/svg" xmlns:xlink="http://www.w3.org/1999/xlink" width="283.46" height="510.24" viewBox="0 0 283.46 510.24">
  <defs>
    <clipPath id="0ab75b73-f16a-4d0c-8c1c-1fe488e451dd" transform="translate(0 0)">
      <rect x="27.59" y="383.16" width="19.84" height="19.84" fill="none"/>
    </clipPath>
    <clipPath id="84d996de-8b1b-416f-8b28-097e357d1dca" transform="translate(0 0)">
      <rect x="26.17" y="306.63" width="19.84" height="19.84" fill="none"/>
    </clipPath>
  </defs>
  <title>Selite rgb</title>
  <g>
    <g>
      <rect x="0.5" y="0.5" width="282.46" height="509.24" rx="29.99" ry="29.99" fill="#fff"/>
      <path d="M253,1a29.52,29.52,0,0,1,29.48,29.49V479.75A29.52,29.52,0,0,1,253,509.24H30.49A29.52,29.52,0,0,1,1,479.75V30.49A29.52,29.52,0,0,1,30.49,1H253m0-1H30.49A30.58,30.58,0,0,0,0,30.49V479.75a30.58,30.58,0,0,0,30.49,30.49H253a30.57,30.57,0,0,0,30.48-30.49V30.49A30.57,30.57,0,0,0,253,0Z" transform="translate(0 0)" fill="#007ec7"/>
    </g>
    <g>
      <text transform="translate(86.54 466.14)" font-size="8" fill="#007ac9" font-family="GothamRounded-Medium, Gotham Rounded"> <tspan x="2.4" y="0" font-size="9">© </tspan><tspan x="12.57" y="0">Linja</tspan><tspan x="31.75" y="0" letter-spacing="-0.01em">s</tspan><tspan x="35.68" y="0" letter-spacing="-0.01em">t</tspan><tspan x="38.85" y="0">o ja ul</tspan><tspan x="63.14" y="0" letter-spacing="-0.02em">k</tspan><tspan x="67.66" y="0">onä</tspan><tspan x="82.57" y="0" letter-spacing="-0.01em">k</tspan><tspan x="87.09" y="0">ö HSL</tspan><tspan font-size="9"><tspan x="2.3" y="10">© </tspan><tspan x="12.47" y="10" font-size="8">Linjen</tspan><tspan x="36.75" y="10" font-size="8" letter-spacing="-0.01em">ä</tspan><tspan x="41.4" y="10" font-size="8">t och l</tspan><tspan x="66.56" y="10" font-size="8" letter-spacing="-0.01em">a</tspan><tspan x="71.15" y="10" font-size="8" letter-spacing="-0.02em">y</tspan><tspan x="75.67" y="10" font-size="8">out H</tspan><tspan x="97.66" y="10" font-size="8" letter-spacing="0em">R</tspan><tspan x="103.42" y="10" font-size="8">T</tspan></tspan><tspan font-size="10"><tspan x="17.29" y="20"> </tspan><tspan x="20.29" y="20" font-size="9">©</tspan><tspan x="27.76" y="20" xml:space="preserve" font-size="8"> Open</tspan><tspan x="52.12" y="20" font-size="8" letter-spacing="-0.01em">S</tspan><tspan x="57.2" y="20" font-size="8">t</tspan><tspan x="60.49" y="20" font-size="8" letter-spacing="-0.02em">r</tspan><tspan x="63.65" y="20" font-size="8">eetMap</tspan></tspan></text>
      <g>
        <line x1="15.59" y1="316.79" x2="58.21" y2="316.79" fill="none" stroke="#ff6319" stroke-linejoin="round" stroke-width="5.67"/>
        <line x1="17.08" y1="316.79" x2="59.7" y2="316.79" fill="none" stroke="#fff" stroke-linejoin="round" stroke-width="2.83" stroke-dasharray="5.67 2.83"/>
      </g>
      <g>
        <line x1="15.59" y1="357.57" x2="58.21" y2="357.42" fill="none" stroke="#8c4799" stroke-linejoin="round" stroke-width="5.67"/>
        <line x1="17.08" y1="357.57" x2="59.7" y2="357.41" fill="none" stroke="#fff" stroke-linejoin="round" stroke-width="2.83" stroke-dasharray="5.67 2.83"/>
      </g>
      <line x1="15.73" y1="275.98" x2="56.83" y2="275.98" fill="none" stroke="#00985f" stroke-miterlimit="10" stroke-width="4.25"/>
      <text transform="translate(28.35 110.56)" font-size="11" fill="#007ac9" font-family="GothamXNarrow-Medium, Gotham XNarrow" letter-spacing="-0.01em">3<tspan x="4.75" y="0" letter-spacing="0em">9</tspan></text>
      <text transform="translate(28.49 344.23)" font-size="8" fill="#8c4799" font-family="GothamRounded-Medium, Gotham Rounded"><tspan letter-spacing="-0.03em">K</tspan><tspan x="5.46" y="0">e</tspan><tspan x="10.3" y="0" letter-spacing="-0.03em">r</tspan><tspan x="13.4" y="0">a</tspan></text>
      <text transform="translate(21.24 295.76)" font-size="8" fill="#ff6319" font-family="GothamRounded-Medium, Gotham Rounded"><tspan letter-spacing="-0.01em">K</tspan><tspan x="5.62" y="0">amppi</tspan><tspan x="-1.07" y="8" letter-spacing="-0.01em">K</tspan><tspan x="4.56" y="8">ampen</tspan></text>
      <rect x="47.74" y="271.16" width="10.71" height="10.64" fill="#00985f"/>
      <rect x="28.92" y="149.39" width="10.71" height="10.64" fill="#007ac9"/>
      <g clip-path="url(#0ab75b73-f16a-4d0c-8c1c-1fe488e451dd)">
        <rect x="27.59" y="383.16" width="19.84" height="19.84" rx="2.48" ry="2.48" fill="#00b2e4" stroke="#00b9e4" stroke-miterlimit="10"/>
        <path d="M32.46,393.42c.71-.18,1.25-.32,2.19-.52,1.23-.26,2.73-.44,2.81-.45s1.57.19,2.8.45c1,.2,1.49.34,2.2.52v-3.58c0-.47.13-1.08-1.09-1.08H39.13v-3.24a.37.37,0,0,0-.33-.35H36.12a.39.39,0,0,0-.34.35v3.24H33.55c-1.22,0-1.09.61-1.09,1.08ZM40,389.67a1,1,0,1,1-1,1,1,1,0,0,1,1-1m-2.55,0a1,1,0,1,1-1,1,1,1,0,0,1,1-1m-2.56,0a1,1,0,1,1-1,1,1,1,0,0,1,1-1m2.56,9.55h5.71l.55-4.48s-2-.55-3.46-.85c-1.22-.26-2.7-.44-2.8-.45h0c-.1,0-1.58.19-2.8.45-1.4.3-3.46.85-3.46.85l.56,4.48h5.71M44.7,423.9H30.33a.5.5,0,1,0,0,1H44.7a.5.5,0,1,0,0-1" transform="translate(0 0)" fill="#fff"/>
      </g>
      <line x1="15.73" y1="240.78" x2="58.29" y2="240.78" fill="none" stroke="#ff6319" stroke-miterlimit="10" stroke-width="4.25"/>
      <text transform="translate(22.44 234.45) scale(0.98 1)" font-size="11" fill="#007ac9" font-family="GothamXNarrow-Medium, Gotham XNarrow" letter-spacing="0em">5<tspan x="4.86" y="0" letter-spacing="0em">50</tspan></text>
      <path d="M54.45,231.14A3.12,3.12,0,1,1,51.33,228,3.15,3.15,0,0,1,54.45,231.14Z" transform="translate(0 0)" fill="#ff6319"/>
      <path d="M22.18,154.71a3.12,3.12,0,1,1-3.12-3.18A3.15,3.15,0,0,1,22.18,154.71Z" transform="translate(0 0)" fill="#007ac9"/>
      <path d="M41,267.68a3.12,3.12,0,1,1-3.12-3.18A3.16,3.16,0,0,1,41,267.68Z" transform="translate(0 0)" fill="#00985f"/>
      <g>
        <path d="M27.59,201.34a2.48,2.48,0,0,0,2.49,2.49H45a2.48,2.48,0,0,0,2.46-2.49V186.45A2.47,2.47,0,0,0,45,184H30.08a2.48,2.48,0,0,0-2.49,2.46Z" transform="translate(0 0)" fill="#007ec5"/>
        <path d="M43.31,186.47a46.69,46.69,0,0,0-5.77-.37,42.59,42.59,0,0,0-5.82.37c-.61.08-1,.43-1,.95V199a.74.74,0,0,0,.53.69l.74.13v1.56c0,.19.16.29.35.29h1.19a.3.3,0,0,0,.32-.29V200a33.89,33.89,0,0,0,3.59.16,35.32,35.32,0,0,0,3.66-.16v1.38a.29.29,0,0,0,.31.29h1.19c.19,0,.35-.1.35-.29v-1.56l.74-.13a.66.66,0,0,0,.53-.69V187.42a1,1,0,0,0-.95-.95m-10.38,12.2a.65.65,0,1,1,0-1.3.65.65,0,0,1,0,1.3m9.08,0a.69.69,0,0,1-.66-.66.68.68,0,0,1,.66-.64.65.65,0,0,1,0,1.3m1.19-3.26v.06c0,.32-.13.5-.53.55a31.73,31.73,0,0,1-5.11.48,24.5,24.5,0,0,1-5.15-.53c-.4-.08-.53-.24-.53-.56v-7.24c0-.32.13-.56.53-.56l10.26,0c.4,0,.53.24.53.56Z" transform="translate(0 0)" fill="#fff"/>
      </g>
      <g clip-path="url(#84d996de-8b1b-416f-8b28-097e357d1dca)">
        <rect x="26.17" y="306.63" width="19.84" height="19.84" rx="2.48" ry="2.48" fill="#ff6319"/>
        <path d="M37.53,323.54l2.65-9.07v-.4s0-.05.08,0v9.51h2.91v-14H38.89l-2.7,9.55,0,.64h-.06l-.07-.64-2.7-9.55H29v14H32V314s.08,0,.08,0v.4l2.63,9.07h2.87" transform="translate(0 0)" fill="#fff"/>
      </g>
      <g>
        <rect x="27.59" y="346.99" width="19.84" height="19.84" rx="2.48" ry="2.48" fill="#8c4799"/>
        <path d="M43.32,364.61a.48.48,0,0,1,0,.95H31.73a.48.48,0,1,1,0-.95h1.16v-1.06h.93v1.06h7.41v-1.06h.92v1.06Zm.66-13.1a7.1,7.1,0,0,0-1.16-2c-.56-.5-2.91-1.06-5.32-1.06s-4.74.56-5.27,1.06a7,7,0,0,0-1.19,2,6.31,6.31,0,0,0-.66,2v7.17c0,.58.19.82.95,1.43a2.19,2.19,0,0,0,1.7.63h1.64v1.09h5.74v-1.09H42a2.08,2.08,0,0,0,1.67-.63c.77-.64,1-.85,1-1.43v-7.17a7.17,7.17,0,0,0-.66-2m-10.24-1.14h7.54v.43a.59.59,0,0,1-.58.58H34.35a.61.61,0,0,1-.61-.58Zm.61,11.09a.61.61,0,1,1,0-1.22.61.61,0,1,1,0,1.22m6.35-.08a.61.61,0,1,1,0-1.22.61.61,0,1,1,0,1.22m2.06-8-1.13,4.92a1,1,0,0,1-.93.76H34.35a1,1,0,0,1-.93-.76l-1.16-4.92a.62.62,0,0,1,.63-.77h9.26a.6.6,0,0,1,.61.77" transform="translate(0 0)" fill="#fff"/>
      </g>
      <text transform="translate(73.66 108.36)" font-size="9" fill="#007ac9" font-family="GothamRounded-Medium, Gotham Rounded">Bu<tspan x="12.08" y="0" letter-spacing="-0.01em">s</tspan><tspan x="16.5" y="0">silinja</tspan><tspan font-family="GothamRounded-Book, Gotham Rounded"><tspan x="0" y="10">Bu</tspan><tspan x="12.04" y="10" letter-spacing="-0.01em">s</tspan><tspan x="16.43" y="10">slinje</tspan><tspan x="0" y="20">Bus </tspan><tspan x="19.22" y="20" letter-spacing="-0.02em">r</tspan><tspan x="22.67" y="20">ou</tspan><tspan x="34.03" y="20" letter-spacing="-0.02em">t</tspan><tspan x="37.53" y="20">e</tspan></tspan></text>
      <text transform="translate(73.66 148.36)" font-size="9" fill="#007ac9" font-family="GothamRounded-Medium, Gotham Rounded"><tspan letter-spacing="0.01em">P</tspan><tspan x="6.1" y="0" letter-spacing="-0.01em">y</tspan><tspan x="11.27" y="0">säkki, pä</tspan><tspan x="50.52" y="0" letter-spacing="-0.01em">ä</tspan><tspan x="55.75" y="0" letter-spacing="-0.01em">t</tspan><tspan x="59.32" y="0" letter-spacing="0em">e</tspan><tspan x="64.75" y="0" letter-spacing="-0.01em">p</tspan><tspan x="70.66" y="0" letter-spacing="-0.01em">y</tspan><tspan x="75.82" y="0">säkki ja yksi suunta</tspan><tspan x="0" y="10" font-family="GothamRounded-Book, Gotham Rounded">Hållpl</tspan><tspan x="25.13" y="10" font-family="GothamRounded-Book, Gotham Rounded" letter-spacing="-0.01em">a</tspan><tspan x="30.29" y="10" font-family="GothamRounded-Book, Gotham Rounded">ts, ändhållpl</tspan><tspan x="83.88" y="10" font-family="GothamRounded-Book, Gotham Rounded" letter-spacing="-0.01em">a</tspan><tspan x="89.04" y="10" font-family="GothamRounded-Book, Gotham Rounded">ts och i en ri</tspan><tspan x="143.71" y="10" font-family="GothamRounded-Book, Gotham Rounded" letter-spacing="-0.01em">k</tspan><tspan x="148.74" y="10" font-family="GothamRounded-Book, Gotham Rounded">tning </tspan><tspan x="0" y="20" font-family="GothamRounded-Book, Gotham Rounded" letter-spacing="-0.01em">S</tspan><tspan x="5.72" y="20" font-family="GothamRounded-Book, Gotham Rounded" letter-spacing="-0.01em">t</tspan><tspan x="9.22" y="20" font-family="GothamRounded-Book, Gotham Rounded">o</tspan><tspan x="15.03" y="20" font-family="GothamRounded-Book, Gotham Rounded" letter-spacing="-0.01em">p</tspan><tspan x="20.92" y="20" font-family="GothamRounded-Book, Gotham Rounded">, </tspan><tspan x="25.82" y="20" font-family="GothamRounded-Book, Gotham Rounded" letter-spacing="-0.02em">t</tspan><tspan x="29.32" y="20" font-family="GothamRounded-Book, Gotham Rounded">erminus and one di</tspan><tspan x="114.65" y="20" font-family="GothamRounded-Book, Gotham Rounded" letter-spacing="-0.02em">r</tspan><tspan x="118.1" y="20" font-family="GothamRounded-Book, Gotham Rounded">ection</tspan><tspan x="0" y="40">Bu</tspan><tspan x="12.08" y="40" letter-spacing="-0.01em">s</tspan><tspan x="16.5" y="40">si</tspan><tspan x="23.58" y="40" letter-spacing="-0.02em">t</tspan><tspan x="27.14" y="40">erminaali</tspan><tspan x="0" y="50" font-family="GothamRounded-Book, Gotham Rounded">Bu</tspan><tspan x="12.04" y="50" font-family="GothamRounded-Book, Gotham Rounded" letter-spacing="-0.01em">ss</tspan><tspan x="20.82" y="50" font-family="GothamRounded-Book, Gotham Rounded" letter-spacing="-0.01em">t</tspan><tspan x="24.33" y="50" font-family="GothamRounded-Book, Gotham Rounded">erminal </tspan><tspan x="0" y="60" font-family="GothamRounded-Book, Gotham Rounded">Bus </tspan><tspan x="19.22" y="60" font-family="GothamRounded-Book, Gotham Rounded" letter-spacing="-0.02em">t</tspan><tspan x="22.72" y="60" font-family="GothamRounded-Book, Gotham Rounded">erminal</tspan></text>
      <text transform="translate(73.66 228.36)" font-size="9" fill="#007ac9" font-family="GothamRounded-Medium, Gotham Rounded" letter-spacing="0em">Run<tspan x="17.64" y="0" letter-spacing="-0.02em">k</tspan><tspan x="22.72" y="0">olinja, </tspan><tspan x="52.26" y="0" letter-spacing="-0.02em">p</tspan><tspan x="58.16" y="0" letter-spacing="-0.01em">y</tspan><tspan x="63.31" y="0">säkki</tspan><tspan x="0" y="10" font-family="GothamRounded-Book, Gotham Rounded" letter-spacing="-0.01em">S</tspan><tspan x="5.71" y="10" font-family="GothamRounded-Book, Gotham Rounded" letter-spacing="-0.02em">t</tspan><tspan x="9.2" y="10" font-family="GothamRounded-Book, Gotham Rounded">omlinj</tspan><tspan x="36.16" y="10" font-family="GothamRounded-Book, Gotham Rounded" letter-spacing="-0.01em">e</tspan><tspan x="41.39" y="10" font-family="GothamRounded-Book, Gotham Rounded">, hållpl</tspan><tspan x="70.05" y="10" font-family="GothamRounded-Book, Gotham Rounded" letter-spacing="-0.01em">a</tspan><tspan x="75.21" y="10" font-family="GothamRounded-Book, Gotham Rounded">ts</tspan><tspan x="0" y="20" font-family="GothamRounded-Book, Gotham Rounded" letter-spacing="-0.09em">T</tspan><tspan x="5.02" y="20" font-family="GothamRounded-Book, Gotham Rounded" letter-spacing="0em">runk </tspan><tspan x="27.52" y="20" font-family="GothamRounded-Book, Gotham Rounded" letter-spacing="-0.02em">r</tspan><tspan x="30.96" y="20" font-family="GothamRounded-Book, Gotham Rounded">ou</tspan><tspan x="42.3" y="20" font-family="GothamRounded-Book, Gotham Rounded" letter-spacing="-0.02em">t</tspan><tspan x="45.79" y="20" font-family="GothamRounded-Book, Gotham Rounded" letter-spacing="-0.01em">e</tspan><tspan x="51.02" y="20" font-family="GothamRounded-Book, Gotham Rounded">, </tspan><tspan x="55.91" y="20" font-family="GothamRounded-Book, Gotham Rounded" letter-spacing="-0.01em">s</tspan><tspan x="60.29" y="20" font-family="GothamRounded-Book, Gotham Rounded" letter-spacing="-0.02em">t</tspan><tspan x="63.78" y="20" font-family="GothamRounded-Book, Gotham Rounded" letter-spacing="0em">op</tspan><tspan x="0" y="40" letter-spacing="0em">Raitiolinja, </tspan></text>
      <text transform="translate(124.03 268.36)" font-size="9" fill="#007ac9" font-family="GothamRounded-Medium, Gotham Rounded"><tspan letter-spacing="-0.02em">p</tspan><tspan x="5.92" y="0" letter-spacing="-0.01em">y</tspan><tspan x="11.1" y="0">säkki ja pä</tspan><tspan x="58.6" y="0" letter-spacing="-0.01em">ä</tspan><tspan x="63.85" y="0" letter-spacing="-0.02em">t</tspan><tspan x="67.42" y="0">e</tspan><tspan x="72.87" y="0" letter-spacing="-0.02em">p</tspan><tspan x="78.79" y="0" letter-spacing="-0.01em">y</tspan><tspan x="83.97" y="0">säkki</tspan></text>
      <text transform="translate(73.66 278.36)" font-size="9" fill="#007ac9" font-family="GothamRounded-Book, Gotham Rounded" letter-spacing="0em">Spår<tspan x="20.63" y="0" letter-spacing="-0.02em">v</tspan><tspan x="25.7" y="0" letter-spacing="0em">agnslinj</tspan><tspan x="59.63" y="0" letter-spacing="-0.01em">e</tspan><tspan x="64.88" y="0">, hållpl</tspan><tspan x="93.69" y="0" letter-spacing="0em">a</tspan><tspan x="98.86" y="0">ts och ändhållpl</tspan><tspan x="169.58" y="0" letter-spacing="0em">a</tspan><tspan x="174.76" y="0">ts</tspan><tspan x="0" y="10" letter-spacing="-0.09em">T</tspan><tspan x="5.04" y="10" letter-spacing="-0.02em">r</tspan><tspan x="8.47" y="10">am </tspan><tspan x="24.97" y="10" letter-spacing="-0.02em">r</tspan><tspan x="28.42" y="10">ou</tspan><tspan x="39.8" y="10" letter-spacing="-0.01em">t</tspan><tspan x="43.31" y="10" letter-spacing="-0.01em">e</tspan><tspan x="48.55" y="10" letter-spacing="0em">, </tspan><tspan x="53.48" y="10" letter-spacing="-0.01em">s</tspan><tspan x="57.88" y="10" letter-spacing="-0.01em">t</tspan><tspan x="61.39" y="10">op and </tspan><tspan x="95.37" y="10" letter-spacing="-0.01em">t</tspan><tspan x="98.88" y="10">erminus</tspan></text>
      <text transform="translate(73.66 308.36)" font-size="9" fill="#007ac9" font-family="GothamRounded-Medium, Gotham Rounded">Met<tspan x="16.95" y="0" letter-spacing="-0.02em">r</tspan><tspan x="20.5" y="0">olinja ja met</tspan><tspan x="75.94" y="0" letter-spacing="-0.02em">r</tspan><tspan x="79.5" y="0">oasema</tspan><tspan x="0" y="10" font-family="GothamRounded-Book, Gotham Rounded">Met</tspan><tspan x="16.78" y="10" font-family="GothamRounded-Book, Gotham Rounded" letter-spacing="-0.02em">r</tspan><tspan x="20.22" y="10" font-family="GothamRounded-Book, Gotham Rounded">olinje och met</tspan><tspan x="83.43" y="10" font-family="GothamRounded-Book, Gotham Rounded" letter-spacing="-0.02em">r</tspan><tspan x="86.88" y="10" font-family="GothamRounded-Book, Gotham Rounded">o</tspan><tspan x="92.69" y="10" font-family="GothamRounded-Book, Gotham Rounded" letter-spacing="-0.01em">s</tspan><tspan x="97.08" y="10" font-family="GothamRounded-Book, Gotham Rounded">t</tspan><tspan x="100.72" y="10" font-family="GothamRounded-Book, Gotham Rounded" letter-spacing="-0.01em">a</tspan><tspan x="105.88" y="10" font-family="GothamRounded-Book, Gotham Rounded">tion</tspan></text>
      <text transform="translate(73.66 328.36)" font-size="9" fill="#007ac9" font-family="GothamRounded-Book, Gotham Rounded">Met<tspan x="16.78" y="0" letter-spacing="-0.02em">r</tspan><tspan x="20.22" y="0">o line and met</tspan><tspan x="83.99" y="0" letter-spacing="-0.02em">r</tspan><tspan x="87.44" y="0">o </tspan><tspan x="95.96" y="0" letter-spacing="-0.01em">s</tspan><tspan x="100.35" y="0">t</tspan><tspan x="103.98" y="0" letter-spacing="0em">a</tspan><tspan x="109.15" y="0">tion </tspan></text>
      <text transform="translate(73.66 348.36)" font-size="9" fill="#007ac9" font-family="GothamRounded-Medium, Gotham Rounded">Raut<tspan x="21.07" y="0" letter-spacing="-0.01em">a</tspan><tspan x="26.31" y="0">tie ja asema</tspan><tspan x="0" y="10" font-family="GothamRounded-Book, Gotham Rounded">Jär</tspan><tspan x="13.83" y="10" font-family="GothamRounded-Book, Gotham Rounded" letter-spacing="-0.02em">n</tspan><tspan x="19.22" y="10" font-family="GothamRounded-Book, Gotham Rounded" letter-spacing="-0.02em">v</tspan><tspan x="24.29" y="10" font-family="GothamRounded-Book, Gotham Rounded">äg och </tspan><tspan x="57.37" y="10" font-family="GothamRounded-Book, Gotham Rounded" letter-spacing="-0.01em">s</tspan><tspan x="61.77" y="10" font-family="GothamRounded-Book, Gotham Rounded">t</tspan><tspan x="65.4" y="10" font-family="GothamRounded-Book, Gotham Rounded" letter-spacing="-0.01em">a</tspan><tspan x="70.57" y="10" font-family="GothamRounded-Book, Gotham Rounded">tion</tspan><tspan x="0" y="20" font-family="GothamRounded-Book, Gotham Rounded">Rail</tspan><tspan x="16.45" y="20" font-family="GothamRounded-Book, Gotham Rounded" letter-spacing="-0.02em">w</tspan><tspan x="24.03" y="20" font-family="GothamRounded-Book, Gotham Rounded" letter-spacing="-0.02em">a</tspan><tspan x="29.09" y="20" font-family="GothamRounded-Book, Gotham Rounded">y and </tspan><tspan x="56.5" y="20" font-family="GothamRounded-Book, Gotham Rounded" letter-spacing="-0.02em">r</tspan><tspan x="59.92" y="20" font-family="GothamRounded-Book, Gotham Rounded">ail</tspan><tspan x="69.87" y="20" font-family="GothamRounded-Book, Gotham Rounded" letter-spacing="-0.02em">w</tspan><tspan x="77.44" y="20" font-family="GothamRounded-Book, Gotham Rounded" letter-spacing="-0.02em">a</tspan><tspan x="82.5" y="20" font-family="GothamRounded-Book, Gotham Rounded">y </tspan><tspan x="90.48" y="20" font-family="GothamRounded-Book, Gotham Rounded" letter-spacing="-0.01em">s</tspan><tspan x="94.88" y="20" font-family="GothamRounded-Book, Gotham Rounded">t</tspan><tspan x="98.51" y="20" font-family="GothamRounded-Book, Gotham Rounded" letter-spacing="-0.01em">a</tspan><tspan x="103.68" y="20" font-family="GothamRounded-Book, Gotham Rounded">tion</tspan></text>
      <text transform="translate(73.66 388.36)" font-size="9" fill="#007ac9" font-family="GothamRounded-Medium, Gotham Rounded">Suomenlinnan lautta<tspan x="0" y="10" font-family="GothamRounded-Book, Gotham Rounded" letter-spacing="-0.01em">S</tspan><tspan x="5.63" y="10" font-family="GothamRounded-Book, Gotham Rounded" letter-spacing="-0.03em">v</tspan><tspan x="10.64" y="10" font-family="GothamRounded-Book, Gotham Rounded">eabo</tspan><tspan x="32.97" y="10" font-family="GothamRounded-Book, Gotham Rounded" letter-spacing="-0.02em">r</tspan><tspan x="36.42" y="10" font-family="GothamRounded-Book, Gotham Rounded">gs</tspan><tspan x="46.88" y="10" font-family="GothamRounded-Book, Gotham Rounded" letter-spacing="-0.01em">f</tspan><tspan x="50.05" y="10" font-family="GothamRounded-Book, Gotham Rounded">ärjan</tspan><tspan x="0" y="20" font-family="GothamRounded-Book, Gotham Rounded" letter-spacing="-0.01em">F</tspan><tspan x="5.77" y="20" font-family="GothamRounded-Book, Gotham Rounded">erry </tspan><tspan x="26.37" y="20" font-family="GothamRounded-Book, Gotham Rounded" letter-spacing="-0.02em">t</tspan><tspan x="29.87" y="20" font-family="GothamRounded-Book, Gotham Rounded">o Suomenlinna</tspan></text>
      <text transform="translate(60.03 36.28)" font-size="12" fill="#007ac9" font-family="GothamRounded-Medium, Gotham Rounded"><tspan letter-spacing="-0.01em">K</tspan><tspan x="8.44" y="0">arttamerkkien selitykset</tspan><tspan font-family="GothamRounded-Book, Gotham Rounded"><tspan x="0" y="14" letter-spacing="-0.13em">T</tspan><tspan x="6.25" y="14">ec</tspan><tspan x="20.21" y="14" letter-spacing="-0.02em">k</tspan><tspan x="26.77" y="14">en</tspan><tspan x="41.27" y="14" letter-spacing="-0.01em">f</tspan><tspan x="45.55" y="14">örklaring till </tspan><tspan x="119.98" y="14" letter-spacing="-0.01em">k</tspan><tspan x="126.67" y="14">artan</tspan><tspan x="157.67" y="14" font-family="GothamRounded-Medium, Gotham Rounded"></tspan><tspan x="0" y="28" letter-spacing="-0.03em">K</tspan><tspan x="8.21" y="28" letter-spacing="-0.02em">e</tspan><tspan x="15.05" y="28">y </tspan><tspan x="25.69" y="28" letter-spacing="-0.01em">t</tspan><tspan x="30.36" y="28">o map </tspan><tspan x="71.64" y="28" letter-spacing="-0.01em">s</tspan><tspan x="77.47" y="28" letter-spacing="0em">ymbols</tspan></tspan></text>
      <g>
        <line x1="44.06" y1="154.54" x2="52.19" y2="154.54" fill="none" stroke="#007ec7" stroke-miterlimit="10" stroke-width="0.99"/>
        <polygon points="49.4 158.22 50.96 154.54 49.4 150.87 58.11 154.54 49.4 158.22" fill="#007ec7"/>
      </g>
    </g>
  </g>
</svg>
