<svg id="8b8d73ca-77cb-496b-b7a8-cae20fe1f411" data-name="Selite" xmlns="http://www.w3.org/2000/svg" xmlns:xlink="http://www.w3.org/1999/xlink" width="284.5" height="511.29999" viewBox="0 0 284.5 511.29999">
  <defs>
    <clipPath id="cd18974b-6f45-4464-a5bc-05ac7bc7eb30">
      <rect x="28.10001" y="383.69998" width="19.8" height="19.79999" fill="none"/>
    </clipPath>
    <clipPath id="8ce57d78-3deb-4f53-93db-b00465e98330">
      <rect x="26.7" y="307.19998" width="19.8" height="19.79999" fill="none"/>
    </clipPath>
  </defs>
  <title>legend</title>
  <g id="cefc4eb7-58f1-4ce3-8e70-139a86cb5395" data-name="g546">
    <path id="ba5451aa-882f-46b2-b3e2-3e094430905d" data-name="path4" d="M253.5,510.8H31A30.5574,30.5574,0,0,1,.5,480.3V31A30.55739,30.55739,0,0,1,31,.5H253.5A30.5574,30.5574,0,0,1,284,31V480.3A30.55741,30.55741,0,0,1,253.5,510.8Z" fill="#fff" stroke="#007ec7" stroke-miterlimit="10"/>
    <g id="a4c16de2-81c8-4c55-91c3-95b180102fdc" data-name="g544">
      <rect id="d27235e0-0957-4f5c-9d10-f4eb0644193f" data-name="rect6" x="1" y="460.10001" width="283.00002" height="38.09998" fill="none"/>
      <g id="0b54c128-9564-409f-bdb4-471ba59dbf9d" data-name="text60" style="isolation: isolate">
        <text transform="translate(89.4693 466.70213)" font-size="9" fill="#007ac9" font-family="GothamRounded-Medium, Gotham Rounded" style="isolation: isolate">© </text>
        <text transform="translate(99.66931 466.70213)" font-size="8" fill="#007ac9" font-family="GothamRounded-Medium, Gotham Rounded" style="isolation: isolate">Linja</text>
        <text transform="translate(118.86932 466.70213)" font-size="8" fill="#007ac9" font-family="GothamRounded-Medium, Gotham Rounded" style="isolation: isolate">s</text>
        <text transform="translate(122.76929 466.70213)" font-size="8" fill="#007ac9" font-family="GothamRounded-Medium, Gotham Rounded" style="isolation: isolate">t</text>
        <text transform="translate(125.86932 466.70213)" font-size="8" fill="#007ac9" font-family="GothamRounded-Medium, Gotham Rounded" style="isolation: isolate">o ja ul</text>
        <text transform="translate(150.16931 466.70213)" font-size="8" fill="#007ac9" font-family="GothamRounded-Medium, Gotham Rounded" style="isolation: isolate">k</text>
        <text transform="translate(154.76929 466.70213)" font-size="8" fill="#007ac9" font-family="GothamRounded-Medium, Gotham Rounded" style="isolation: isolate">onä</text>
        <text transform="translate(169.66931 466.70213)" font-size="8" fill="#007ac9" font-family="GothamRounded-Medium, Gotham Rounded" style="isolation: isolate">k</text>
        <text transform="translate(174.16931 466.70213)" font-size="8" fill="#007ac9" font-family="GothamRounded-Medium, Gotham Rounded" style="isolation: isolate">ö HSL</text>
        <text transform="translate(89.36931 476.70213)" font-size="9" fill="#007ac9" font-family="GothamRounded-Medium, Gotham Rounded" style="isolation: isolate">© </text>
        <text transform="translate(99.56931 476.70213)" font-size="8" fill="#007ac9" font-family="GothamRounded-Medium, Gotham Rounded" style="isolation: isolate">Linjen</text>
        <text transform="translate(123.76929 476.70213)" font-size="8" fill="#007ac9" font-family="GothamRounded-Medium, Gotham Rounded" style="isolation: isolate">ä</text>
        <text transform="translate(128.4693 476.70213)" font-size="8" fill="#007ac9" font-family="GothamRounded-Medium, Gotham Rounded" style="isolation: isolate">t och l</text>
        <text transform="translate(153.66931 476.70213)" font-size="8" fill="#007ac9" font-family="GothamRounded-Medium, Gotham Rounded" style="isolation: isolate">a</text>
        <text transform="translate(158.26929 476.70213)" font-size="8" fill="#007ac9" font-family="GothamRounded-Medium, Gotham Rounded" style="isolation: isolate">y</text>
        <text transform="translate(162.76929 476.70213)" font-size="8" fill="#007ac9" font-family="GothamRounded-Medium, Gotham Rounded" style="isolation: isolate">out H</text>
        <text transform="translate(184.76929 476.70213)" font-size="8" fill="#007ac9" font-family="GothamRounded-Medium, Gotham Rounded" style="isolation: isolate">R</text>
        <text transform="translate(190.4693 476.70213)" font-size="8" fill="#007ac9" font-family="GothamRounded-Medium, Gotham Rounded" style="isolation: isolate">T</text>
        <text transform="translate(107.36932 486.70213)" font-size="9" fill="#007ac9" font-family="GothamRounded-Medium, Gotham Rounded" style="isolation: isolate">©</text>
        <text transform="translate(114.86932 486.70213)" font-size="8" fill="#007ac9" font-family="GothamRounded-Medium, Gotham Rounded" style="isolation: isolate"><tspan xml:space="preserve"> Open</tspan></text>
        <text transform="translate(139.16931 486.70213)" font-size="8" fill="#007ac9" font-family="GothamRounded-Medium, Gotham Rounded" style="isolation: isolate">S</text>
        <text transform="translate(144.26929 486.70213)" font-size="8" fill="#007ac9" font-family="GothamRounded-Medium, Gotham Rounded" style="isolation: isolate">t</text>
        <text transform="translate(147.56931 486.70213)" font-size="8" fill="#007ac9" font-family="GothamRounded-Medium, Gotham Rounded" style="isolation: isolate">r</text>
        <text transform="translate(150.66931 486.70213)" font-size="8" fill="#007ac9" font-family="GothamRounded-Medium, Gotham Rounded" style="isolation: isolate">eetMap</text>
      </g>
      <g id="e9db4c5f-ddb9-409b-9051-c60fb8317651" data-name="g66">
        <line id="adee748e-d62c-4c3e-a20d-56ad73a01390" data-name="line62" x1="16.10001" y1="317.39999" x2="58.7" y2="317.39999" fill="none" stroke="#ff6319" stroke-linejoin="round" stroke-width="5.6693"/>
        <line id="d4cc2c44-e99e-421a-abb3-9b8cd1d825d4" data-name="line64" x1="17.60001" y1="317.39999" x2="60.2" y2="317.39999" fill="none" stroke="#fff" stroke-linejoin="round" stroke-width="2.8346" stroke-dasharray="5.6693 2.8346"/>
      </g>
      <g id="03372fdd-c736-4b71-8987-1223a0a1aea6" data-name="g72">
        <line id="ace04de8-c93e-4241-89aa-7abf13519ac7" data-name="line68" x1="16.10001" y1="358.10001" x2="58.7" y2="357.99997" fill="none" stroke="#8c4799" stroke-linejoin="round" stroke-width="5.6693"/>
        <line id="d293a219-9af9-48f7-8208-9375af128e58" data-name="line70" x1="17.60001" y1="358.10001" x2="60.2" y2="357.99997" fill="none" stroke="#fff" stroke-linejoin="round" stroke-width="2.8346" stroke-dasharray="5.6693 2.8346"/>
      </g>
      <line id="4213c02c-f6d3-436b-a91a-f15ec2139b3a" data-name="line76" x1="16.3" y1="276.5" x2="57.40001" y2="276.5" fill="none" stroke="#00985f" stroke-miterlimit="10" stroke-width="4.252"/>
      <g id="e7060820-ce4b-4841-9c5c-aeb007941c83" data-name="text84" style="isolation: isolate">
        <text transform="translate(27.88681 111.11321)" font-size="11" fill="#007ac9" font-family="GothamXNarrow-Medium, Gotham XNarrow" style="isolation: isolate">1</text>
        <text transform="translate(31.18681 111.11321)" font-size="11" fill="#007ac9" font-family="GothamXNarrow-Medium, Gotham XNarrow" style="isolation: isolate">0</text>
        <text transform="translate(36.7868 111.11321)" font-size="11" fill="#007ac9" font-family="GothamXNarrow-Medium, Gotham XNarrow" style="isolation: isolate">2</text>
      </g>
      <g id="0513cfcd-d8aa-4c02-a209-3007819a8f61" data-name="text94" style="isolation: isolate">
        <text transform="translate(29.0271 344.7852)" font-size="8" fill="#8c4799" font-family="GothamRounded-Medium, Gotham Rounded" style="isolation: isolate">K</text>
        <text transform="translate(34.5271 344.7852)" font-size="8" fill="#8c4799" font-family="GothamRounded-Medium, Gotham Rounded" style="isolation: isolate">e</text>
        <text transform="translate(39.3271 344.7852)" font-size="8" fill="#8c4799" font-family="GothamRounded-Medium, Gotham Rounded" style="isolation: isolate">r</text>
        <text transform="translate(42.42709 344.7852)" font-size="8" fill="#8c4799" font-family="GothamRounded-Medium, Gotham Rounded" style="isolation: isolate">a</text>
      </g>
      <g id="77fc312b-f833-45cf-b7a2-39fe8d2c6657" data-name="text104" style="isolation: isolate">
        <text transform="translate(21.7722 296.31328)" font-size="8" fill="#ff6319" font-family="GothamRounded-Medium, Gotham Rounded" style="isolation: isolate">K</text>
        <text transform="translate(27.37221 296.31328)" font-size="8" fill="#ff6319" font-family="GothamRounded-Medium, Gotham Rounded" style="isolation: isolate">amppi</text>
        <text transform="translate(20.6722 304.31328)" font-size="8" fill="#ff6319" font-family="GothamRounded-Medium, Gotham Rounded" style="isolation: isolate">K</text>
        <text transform="translate(26.37221 304.31328)" font-size="8" fill="#ff6319" font-family="GothamRounded-Medium, Gotham Rounded" style="isolation: isolate">ampen</text>
      </g>
      <rect id="4addeaf4-102e-48f2-b1ef-d65ec4ad6154" data-name="rect106" x="48.3" y="271.69998" width="10.7" height="10.60001" fill="#00985f"/>
      <rect id="009ffc98-2a0c-4a77-843e-dadd31b21009" data-name="rect108" x="29.5" y="149.89999" width="10.7" height="10.60001" fill="#007ac9"/>
      <g id="39e74095-007b-43ee-a082-b0127c671210" data-name="g120">
        <g clip-path="url(#cd18974b-6f45-4464-a5bc-05ac7bc7eb30)">
          <path id="076e3e22-836e-4a69-9d5f-e661e761a8e6" data-name="path116" d="M28.1,401.1a2.4757,2.4757,0,0,0,2.5,2.5H45.5a2.4757,2.4757,0,0,0,2.5-2.5V386.2a2.4757,2.4757,0,0,0-2.5-2.5H30.6a2.4757,2.4757,0,0,0-2.5,2.5Z" fill="#00b2e4" stroke="#00b9e4" stroke-miterlimit="10"/>
        </g>
        <g clip-path="url(#cd18974b-6f45-4464-a5bc-05ac7bc7eb30)">
          <path id="7ddc0f43-1943-4e68-bc03-f5f5321c166f" data-name="path118" d="M33,394c.7-.2,1.2-.3,2.2-.5,1.2-.3,2.7-.4,2.8-.5a24.10248,24.10248,0,0,1,2.8.5c.9.2,1.5.3,2.2.5v-3.6c0-.5.1-1.1-1.1-1.1H39.7v-3.2c0-.2-.2-.3-.3-.4H36.7c-.2,0-.3.2-.3.4v3.2H34.2c-1.2,0-1.1.6-1.1,1.1V394Zm7.5-3.8a1,1,0,1,1-1,1,1.16572,1.16572,0,0,1,1-1m-2.5,0a1,1,0,1,1-1,1,1.07539,1.07539,0,0,1,1-1m-2.6,0a1,1,0,1,1-1,1,1.16572,1.16572,0,0,1,1-1m2.6,9.6h5.7l.6-4.5s-2.1-.6-3.5-.9c-1.2-.3-2.7-.4-2.8-.5h0a24.10248,24.10248,0,0,0-2.8.5c-1.4.3-3.5.9-3.5.9l.6,4.5H38m7.2,24.7H30.8a.5.5,0,1,0,0,1H45.2a.5.5,0,1,0,0-1" fill="#fff"/>
        </g>
      </g>
      <line id="80065997-1ac0-4de5-9a7c-72d1d513db3f" data-name="line122" x1="16.3" y1="241.29999" x2="58.8" y2="241.29999" fill="none" stroke="#ff6319" stroke-miterlimit="10" stroke-width="4.252"/>
      <g id="2e665ae5-488f-40ea-8765-09af83dcd0d4" data-name="text128" style="isolation: isolate">
        <text transform="translate(22.97363 235.00377) scale(0.9801 1)" font-size="11" fill="#007ac9" font-family="GothamXNarrow-Medium, Gotham XNarrow" style="isolation: isolate">5</text>
        <text transform="translate(27.77637 235.00377) scale(0.9801 1)" font-size="11" fill="#007ac9" font-family="GothamXNarrow-Medium, Gotham XNarrow" style="isolation: isolate">50</text>
      </g>
      <ellipse id="0fc7bb70-db12-4e0f-b425-aab527c7e42e" data-name="ellipse130" cx="51.90001" cy="231.69998" rx="3.10001" ry="3.20001" fill="#ff6319"/>
      <ellipse id="1887836d-1e54-40a2-a7bb-2d4e876ab363" data-name="ellipse132" cx="19.60001" cy="155.29999" rx="3.10001" ry="3.20001" fill="#007ac9"/>
      <ellipse id="2e7fa0c9-f6ae-40c9-937b-90860373c2a8" data-name="ellipse134" cx="38.40001" cy="268.19998" rx="3.10001" ry="3.20001" fill="#00985f"/>
      <g id="5fe8211c-8b79-497f-8694-37d24ad177b1" data-name="g144">
        <g id="95126f65-807d-4027-9494-14dac9c962f5" data-name="g138">
          <path id="5d5cd622-2db2-42ea-8e54-ab46b5ab75c8" data-name="path136" d="M28.1,201.9a2.47572,2.47572,0,0,0,2.5,2.5H45.5a2.54005,2.54005,0,0,0,2.5-2.5V187a2.54006,2.54006,0,0,0-2.5-2.5H30.6a2.47572,2.47572,0,0,0-2.5,2.5Z" fill="#007ec5"/>
        </g>
        <g id="a51771dc-c224-4851-9717-449008acf235" data-name="g142">
          <path id="24653d51-569e-4e7c-b92d-ba46e8385e19" data-name="path140" d="M43.8,187a56.501,56.501,0,0,0-5.8-.4,36.03111,36.03111,0,0,0-5.8.4c-.6.1-1,.4-1,1v11.6a.78731.78731,0,0,0,.5.7l.7.1V202a.31928.31928,0,0,0,.3.3h1.2a.26517.26517,0,0,0,.3-.3v-1.4c1,.1,2.3.2,3.6.2s2.7-.1,3.7-.2V202a.31928.31928,0,0,0,.3.3H43a.26517.26517,0,0,0,.3-.3v-1.6l.7-.1a.66622.66622,0,0,0,.5-.7V188c.3-.5-.1-.9-.7-1M33.5,199.2a.68353.68353,0,0,1-.7-.7.66874.66874,0,0,1,.7-.6.64523.64523,0,0,1,.6.6.66875.66875,0,0,1-.6.7m9,0a.68353.68353,0,0,1-.7-.7.66874.66874,0,0,1,.7-.6.64523.64523,0,0,1,.6.6.56267.56267,0,0,1-.6.7m1.2-3.2h0c0,.4-.1.6-.5.6a36.69736,36.69736,0,0,1-5.1.5,26.989,26.989,0,0,1-5.2-.5c-.4-.1-.5-.2-.5-.6v-7.2c0-.3.1-.6.5-.6l10.3.1c.4,0,.5.2.5.6Z" fill="#fff"/>
        </g>
      </g>
      <g id="5c7e09b0-0f38-4335-bf6b-8d07778c8a8f" data-name="g156">
        <g clip-path="url(#8ce57d78-3deb-4f53-93db-b00465e98330)">
          <path id="20895094-a97a-4d8a-a938-e552ff9b7ad7" data-name="path152" d="M26.7,324.6a2.47572,2.47572,0,0,0,2.5,2.5H44.1a2.47572,2.47572,0,0,0,2.5-2.5V309.7a2.47572,2.47572,0,0,0-2.5-2.5H29.2a2.47572,2.47572,0,0,0-2.5,2.5Z" fill="#ff6319"/>
        </g>
        <g clip-path="url(#8ce57d78-3deb-4f53-93db-b00465e98330)">
          <path id="c0ff88da-62de-41ad-ad53-cdf17723642a" data-name="path154" d="M38.1,324.1l2.7-9.1v-.4s0-.1.1,0v9.5h2.9v-14H39.5l-2.7,9.6-.1.6h-.1l-.1-.6-2.7-9.6H29.5v14h2.9v-9.5h.1v.4l2.6,9.1h3" fill="#fff"/>
        </g>
      </g>
      <g id="9507de1d-4caf-4218-b557-e1285f40c979" data-name="g166">
        <g id="3476fc64-2aae-49be-a60c-4aa655147515" data-name="g160">
          <path id="4a80d6af-ffe6-4a91-b493-ad7d5d47a4c0" data-name="path158" d="M28.1,364.9a2.4757,2.4757,0,0,0,2.5,2.5H45.5a2.4757,2.4757,0,0,0,2.5-2.5V350a2.4757,2.4757,0,0,0-2.5-2.5H30.6a2.4757,2.4757,0,0,0-2.5,2.5Z" fill="#8c4799"/>
        </g>
        <g id="2d89ec45-d7e7-48b3-9439-650a760fd4bd" data-name="g164">
          <path id="93f2c1ac-4cb4-48e9-b40f-4ab0cabbfa76" data-name="path162" d="M43.9,365.2a.5.5,0,1,1,0,1H32.3a.5.5,0,1,1,0-1h1.2v-1.1h.9v1.1h7.4v-1.1h.9v1.1Zm.6-13.1a4.92,4.92,0,0,0-1.2-2c-.6-.5-2.9-1.1-5.3-1.1-2.3,0-4.7.6-5.3,1.1a7.90821,7.90821,0,0,0-1.2,2,5.94926,5.94926,0,0,0-.7,2v7.2c0,.6.2.8,1,1.4a1.99927,1.99927,0,0,0,1.7.6h1.6v1.1h5.7v-1.1h1.6a2.35237,2.35237,0,0,0,1.7-.6c.8-.6,1-.8,1-1.4v-7.2a3.923,3.923,0,0,0-.6-2m-10.2-1.2h7.5v.4a.64523.64523,0,0,1-.6.6H34.9a.64523.64523,0,0,1-.6-.6Zm.6,11.1a.6.6,0,1,1,.6-.6.57637.57637,0,0,1-.6.6m6.3-.1a.6.6,0,1,1,.6-.6c.1.4-.2.6-.6.6m2.1-8-1.1,4.9a1.06287,1.06287,0,0,1-.9.8H35a.948.948,0,0,1-.9-.8l-1.2-4.9a.64074.64074,0,0,1,.6-.8h9.3a.63785.63785,0,0,1,.5.8" fill="#fff"/>
        </g>
      </g>
      <rect id="2383f6da-be0f-49a8-9b29-4289d77a8510" data-name="rect168" x="74.2" y="101.29999" width="189.69998" height="320.89999" fill="none"/>
      <text transform="translate(74.1964 108.91362)" font-size="9" fill="#007ac9" font-family="GothamRounded-Medium, Gotham Rounded" style="isolation: isolate">Bu</text>
      <text transform="translate(86.27451 108.91362)" font-size="9" fill="#007ac9" font-family="GothamRounded-Medium, Gotham Rounded" style="isolation: isolate">s</text>
      <text transform="translate(90.6935 108.91362)" font-size="9" fill="#007ac9" font-family="GothamRounded-Medium, Gotham Rounded" style="isolation: isolate">silinja</text>
      <text transform="translate(74.1964 118.91362)" font-size="9" fill="#007ac9" font-family="GothamRounded-Book, Gotham Rounded" style="isolation: isolate">Bu</text>
      <text transform="translate(86.2384 118.91362)" font-size="9" fill="#007ac9" font-family="GothamRounded-Book, Gotham Rounded" style="isolation: isolate">s</text>
      <text transform="translate(90.63051 118.91362)" font-size="9" fill="#007ac9" font-family="GothamRounded-Book, Gotham Rounded" style="isolation: isolate">slinje</text>
      <text transform="translate(74.1964 128.91362)" font-size="9" fill="#007ac9" font-family="GothamRounded-Book, Gotham Rounded" style="isolation: isolate">Bus </text>
      <text transform="translate(93.42 128.91362)" font-size="9" fill="#007ac9" font-family="GothamRounded-Book, Gotham Rounded" style="isolation: isolate">r</text>
      <text transform="translate(96.86731 128.91362)" font-size="9" fill="#007ac9" font-family="GothamRounded-Book, Gotham Rounded" style="isolation: isolate">ou</text>
      <text transform="translate(108.22522 128.91362)" font-size="9" fill="#007ac9" font-family="GothamRounded-Book, Gotham Rounded" style="isolation: isolate">t</text>
      <text transform="translate(111.72571 128.91362)" font-size="9" fill="#007ac9" font-family="GothamRounded-Book, Gotham Rounded" style="isolation: isolate">e</text>
      <text transform="translate(74.19629 148.91344)" font-size="9" fill="#007ac9" font-family="GothamRounded-Medium, Gotham Rounded" style="isolation: isolate">P</text>
      <text transform="translate(80.2832 148.91344)" font-size="9" fill="#007ac9" font-family="GothamRounded-Medium, Gotham Rounded" style="isolation: isolate">y</text>
      <text transform="translate(85.43652 148.91344)" font-size="9" fill="#007ac9" font-family="GothamRounded-Medium, Gotham Rounded" style="isolation: isolate">säkki, pä</text>
      <text transform="translate(124.58936 148.91344)" font-size="9" fill="#007ac9" font-family="GothamRounded-Medium, Gotham Rounded" style="isolation: isolate">ä</text>
      <text transform="translate(129.81445 148.91344)" font-size="9" fill="#007ac9" font-family="GothamRounded-Medium, Gotham Rounded" style="isolation: isolate">t</text>
      <text transform="translate(133.36963 148.91344)" font-size="9" fill="#007ac9" font-family="GothamRounded-Medium, Gotham Rounded" style="isolation: isolate">e</text>
      <text transform="translate(138.79199 148.91344)" font-size="9" fill="#007ac9" font-family="GothamRounded-Medium, Gotham Rounded" style="isolation: isolate">p</text>
      <text transform="translate(144.68164 148.91344)" font-size="9" fill="#007ac9" font-family="GothamRounded-Medium, Gotham Rounded" style="isolation: isolate">y</text>
      <text transform="translate(149.83398 148.91344)" font-size="9" fill="#007ac9" font-family="GothamRounded-Medium, Gotham Rounded" style="isolation: isolate">säkki ja yksi suunta</text>
      <text transform="translate(74.19629 158.91344)" font-size="9" fill="#007ac9" font-family="GothamRounded-Book, Gotham Rounded" style="isolation: isolate">Hållpl</text>
      <text transform="translate(99.26172 158.91344)" font-size="9" fill="#007ac9" font-family="GothamRounded-Book, Gotham Rounded" style="isolation: isolate">a</text>
      <text transform="translate(104.41504 158.91344)" font-size="9" fill="#007ac9" font-family="GothamRounded-Book, Gotham Rounded" style="isolation: isolate">ts, ändhållpl</text>
      <text transform="translate(157.86914 158.91344)" font-size="9" fill="#007ac9" font-family="GothamRounded-Book, Gotham Rounded" style="isolation: isolate">a</text>
      <text transform="translate(163.02246 158.91344)" font-size="9" fill="#007ac9" font-family="GothamRounded-Book, Gotham Rounded" style="isolation: isolate">ts och i en ri</text>
      <text transform="translate(217.55225 158.91344)" font-size="9" fill="#007ac9" font-family="GothamRounded-Book, Gotham Rounded" style="isolation: isolate">k</text>
      <text transform="translate(222.57227 158.91344)" font-size="9" fill="#007ac9" font-family="GothamRounded-Book, Gotham Rounded" style="isolation: isolate">tning </text>
      <text transform="translate(74.19629 168.91344)" font-size="9" fill="#007ac9" font-family="GothamRounded-Book, Gotham Rounded" style="isolation: isolate">S</text>
      <text transform="translate(79.89795 168.91344)" font-size="9" fill="#007ac9" font-family="GothamRounded-Book, Gotham Rounded" style="isolation: isolate">t</text>
      <text transform="translate(83.39063 168.91344)" font-size="9" fill="#007ac9" font-family="GothamRounded-Book, Gotham Rounded" style="isolation: isolate">o</text>
      <text transform="translate(89.19043 168.91344)" font-size="9" fill="#007ac9" font-family="GothamRounded-Book, Gotham Rounded" style="isolation: isolate">p</text>
      <text transform="translate(95.06152 168.91344)" font-size="9" fill="#007ac9" font-family="GothamRounded-Book, Gotham Rounded" style="isolation: isolate">, </text>
      <text transform="translate(99.95508 168.91344)" font-size="9" fill="#007ac9" font-family="GothamRounded-Book, Gotham Rounded" style="isolation: isolate">t</text>
      <text transform="translate(103.44727 168.91344)" font-size="9" fill="#007ac9" font-family="GothamRounded-Book, Gotham Rounded" style="isolation: isolate">erminus and one di</text>
      <text transform="translate(188.56445 168.91344)" font-size="9" fill="#007ac9" font-family="GothamRounded-Book, Gotham Rounded" style="isolation: isolate">r</text>
      <text transform="translate(192.00244 168.91344)" font-size="9" fill="#007ac9" font-family="GothamRounded-Book, Gotham Rounded" style="isolation: isolate">ection</text>
      <text transform="translate(74.19629 188.91344)" font-size="9" fill="#007ac9" font-family="GothamRounded-Medium, Gotham Rounded" style="isolation: isolate">Bu</text>
      <text transform="translate(86.24463 188.91344)" font-size="9" fill="#007ac9" font-family="GothamRounded-Medium, Gotham Rounded" style="isolation: isolate">s</text>
      <text transform="translate(90.65332 188.91344)" font-size="9" fill="#007ac9" font-family="GothamRounded-Medium, Gotham Rounded" style="isolation: isolate">si</text>
      <text transform="translate(97.71924 188.91344)" font-size="9" fill="#007ac9" font-family="GothamRounded-Medium, Gotham Rounded" style="isolation: isolate">t</text>
      <text transform="translate(101.27393 188.91344)" font-size="9" fill="#007ac9" font-family="GothamRounded-Medium, Gotham Rounded" style="isolation: isolate">erminaali</text>
      <text transform="translate(74.19629 198.91344)" font-size="9" fill="#007ac9" font-family="GothamRounded-Book, Gotham Rounded" style="isolation: isolate">Bu</text>
      <text transform="translate(86.20898 198.91344)" font-size="9" fill="#007ac9" font-family="GothamRounded-Book, Gotham Rounded" style="isolation: isolate"><tspan letter-spacing="-0.01001em">s</tspan><tspan x="4.39189" y="0">s</tspan></text>
      <text transform="translate(94.97021 198.91344)" font-size="9" fill="#007ac9" font-family="GothamRounded-Book, Gotham Rounded" style="isolation: isolate">t</text>
      <text transform="translate(98.46289 198.91344)" font-size="9" fill="#007ac9" font-family="GothamRounded-Book, Gotham Rounded" style="isolation: isolate">erminal </text>
      <text transform="translate(74.19629 208.91344)" font-size="9" fill="#007ac9" font-family="GothamRounded-Book, Gotham Rounded" style="isolation: isolate">Bus </text>
      <text transform="translate(93.37305 208.91344)" font-size="9" fill="#007ac9" font-family="GothamRounded-Book, Gotham Rounded" style="isolation: isolate">t</text>
      <text transform="translate(96.86523 208.91344)" font-size="9" fill="#007ac9" font-family="GothamRounded-Book, Gotham Rounded" style="isolation: isolate">erminal</text>
      <text transform="translate(74.1964 228.91362)" font-size="9" fill="#007ac9" font-family="GothamRounded-Medium, Gotham Rounded" style="isolation: isolate">Run</text>
      <text transform="translate(91.8365 228.91362)" font-size="9" fill="#007ac9" font-family="GothamRounded-Medium, Gotham Rounded" style="isolation: isolate">k</text>
      <text transform="translate(96.9122 228.91362)" font-size="9" fill="#007ac9" font-family="GothamRounded-Medium, Gotham Rounded" style="isolation: isolate">olinja, </text>
      <text transform="translate(126.45813 228.91362)" font-size="9" fill="#007ac9" font-family="GothamRounded-Medium, Gotham Rounded" style="isolation: isolate">p</text>
      <text transform="translate(132.3526 228.91362)" font-size="9" fill="#007ac9" font-family="GothamRounded-Medium, Gotham Rounded" style="isolation: isolate">y</text>
      <text transform="translate(137.50989 228.91362)" font-size="9" fill="#007ac9" font-family="GothamRounded-Medium, Gotham Rounded" style="isolation: isolate">säkki</text>
      <text transform="translate(74.1964 238.91362)" font-size="9" fill="#007ac9" font-family="GothamRounded-Book, Gotham Rounded" style="isolation: isolate">S</text>
      <text transform="translate(79.9025 238.91362)" font-size="9" fill="#007ac9" font-family="GothamRounded-Book, Gotham Rounded" style="isolation: isolate">t</text>
      <text transform="translate(83.3942 238.91362)" font-size="9" fill="#007ac9" font-family="GothamRounded-Book, Gotham Rounded" style="isolation: isolate">omlinj</text>
      <text transform="translate(110.35748 238.91362)" font-size="9" fill="#007ac9" font-family="GothamRounded-Book, Gotham Rounded" style="isolation: isolate">e</text>
      <text transform="translate(115.586 238.91362)" font-size="9" fill="#007ac9" font-family="GothamRounded-Book, Gotham Rounded" style="isolation: isolate">, hållpl</text>
      <text transform="translate(144.25061 238.91362)" font-size="9" fill="#007ac9" font-family="GothamRounded-Book, Gotham Rounded" style="isolation: isolate">a</text>
      <text transform="translate(149.40778 238.91362)" font-size="9" fill="#007ac9" font-family="GothamRounded-Book, Gotham Rounded" style="isolation: isolate">ts</text>
      <text transform="translate(74.1964 248.91362)" font-size="9" fill="#007ac9" font-family="GothamRounded-Book, Gotham Rounded" style="isolation: isolate">T</text>
      <text transform="translate(79.2189 248.91362)" font-size="9" fill="#007ac9" font-family="GothamRounded-Book, Gotham Rounded" style="isolation: isolate">runk </text>
      <text transform="translate(101.7179 248.91362)" font-size="9" fill="#007ac9" font-family="GothamRounded-Book, Gotham Rounded" style="isolation: isolate">r</text>
      <text transform="translate(105.15588 248.91362)" font-size="9" fill="#007ac9" font-family="GothamRounded-Book, Gotham Rounded" style="isolation: isolate">ou</text>
      <text transform="translate(116.49573 248.91362)" font-size="9" fill="#007ac9" font-family="GothamRounded-Book, Gotham Rounded" style="isolation: isolate">t</text>
      <text transform="translate(119.98792 248.91362)" font-size="9" fill="#007ac9" font-family="GothamRounded-Book, Gotham Rounded" style="isolation: isolate">e</text>
      <text transform="translate(125.21692 248.91362)" font-size="9" fill="#007ac9" font-family="GothamRounded-Book, Gotham Rounded" style="isolation: isolate">, </text>
      <text transform="translate(130.10358 248.91362)" font-size="9" fill="#007ac9" font-family="GothamRounded-Book, Gotham Rounded" style="isolation: isolate">s</text>
      <text transform="translate(134.48688 248.91362)" font-size="9" fill="#007ac9" font-family="GothamRounded-Book, Gotham Rounded" style="isolation: isolate">t</text>
      <text transform="translate(137.97858 248.91362)" font-size="9" fill="#007ac9" font-family="GothamRounded-Book, Gotham Rounded" style="isolation: isolate">op</text>
      <text transform="translate(74.1964 268.91362)" font-size="9" fill="#007ac9" font-family="GothamRounded-Medium, Gotham Rounded" style="isolation: isolate">Raitiolinja, </text>
      <text transform="translate(124.56738 268.91344)" font-size="9" fill="#007ac9" font-family="GothamRounded-Medium, Gotham Rounded" style="isolation: isolate">p</text>
      <text transform="translate(130.47168 268.91344)" font-size="9" fill="#007ac9" font-family="GothamRounded-Medium, Gotham Rounded" style="isolation: isolate">y</text>
      <text transform="translate(135.63672 268.91344)" font-size="9" fill="#007ac9" font-family="GothamRounded-Medium, Gotham Rounded" style="isolation: isolate">säkki ja pä</text>
      <text transform="translate(183.02246 268.91344)" font-size="9" fill="#007ac9" font-family="GothamRounded-Medium, Gotham Rounded" style="isolation: isolate">ä</text>
      <text transform="translate(188.26074 268.91344)" font-size="9" fill="#007ac9" font-family="GothamRounded-Medium, Gotham Rounded" style="isolation: isolate">t</text>
      <text transform="translate(191.8252 268.91344)" font-size="9" fill="#007ac9" font-family="GothamRounded-Medium, Gotham Rounded" style="isolation: isolate">e</text>
      <text transform="translate(197.26074 268.91344)" font-size="9" fill="#007ac9" font-family="GothamRounded-Medium, Gotham Rounded" style="isolation: isolate">p</text>
      <text transform="translate(203.16504 268.91344)" font-size="9" fill="#007ac9" font-family="GothamRounded-Medium, Gotham Rounded" style="isolation: isolate">y</text>
      <text transform="translate(208.33105 268.91344)" font-size="9" fill="#007ac9" font-family="GothamRounded-Medium, Gotham Rounded" style="isolation: isolate">säkki</text>
      <text transform="translate(74.1964 278.91362)" font-size="9" fill="#007ac9" font-family="GothamRounded-Book, Gotham Rounded" style="isolation: isolate">Spår</text>
      <text transform="translate(94.82431 278.91362)" font-size="9" fill="#007ac9" font-family="GothamRounded-Book, Gotham Rounded" style="isolation: isolate">v</text>
      <text transform="translate(99.90001 278.91362)" font-size="9" fill="#007ac9" font-family="GothamRounded-Book, Gotham Rounded" style="isolation: isolate">agnslinj</text>
      <text transform="translate(133.82922 278.91362)" font-size="9" fill="#007ac9" font-family="GothamRounded-Book, Gotham Rounded" style="isolation: isolate">e</text>
      <text transform="translate(139.07629 278.91362)" font-size="9" fill="#007ac9" font-family="GothamRounded-Book, Gotham Rounded" style="isolation: isolate">, hållpl</text>
      <text transform="translate(167.88538 278.91362)" font-size="9" fill="#007ac9" font-family="GothamRounded-Book, Gotham Rounded" style="isolation: isolate">a</text>
      <text transform="translate(173.06018 278.91362)" font-size="9" fill="#007ac9" font-family="GothamRounded-Book, Gotham Rounded" style="isolation: isolate">ts och ändhållpl</text>
      <text transform="translate(243.77991 278.91362)" font-size="9" fill="#007ac9" font-family="GothamRounded-Book, Gotham Rounded" style="isolation: isolate">a</text>
      <text transform="translate(248.95569 278.91362)" font-size="9" fill="#007ac9" font-family="GothamRounded-Book, Gotham Rounded" style="isolation: isolate">ts</text>
      <text transform="translate(74.1964 288.91362)" font-size="9" fill="#007ac9" font-family="GothamRounded-Book, Gotham Rounded" style="isolation: isolate">T</text>
      <text transform="translate(79.2364 288.91362)" font-size="9" fill="#007ac9" font-family="GothamRounded-Book, Gotham Rounded" style="isolation: isolate">r</text>
      <text transform="translate(82.6656 288.91362)" font-size="9" fill="#007ac9" font-family="GothamRounded-Book, Gotham Rounded" style="isolation: isolate">am </text>
      <text transform="translate(99.1622 288.91362)" font-size="9" fill="#007ac9" font-family="GothamRounded-Book, Gotham Rounded" style="isolation: isolate">r</text>
      <text transform="translate(102.61877 288.91362)" font-size="9" fill="#007ac9" font-family="GothamRounded-Book, Gotham Rounded" style="isolation: isolate">ou</text>
      <text transform="translate(113.9942 288.91362)" font-size="9" fill="#007ac9" font-family="GothamRounded-Book, Gotham Rounded" style="isolation: isolate">t</text>
      <text transform="translate(117.50403 288.91362)" font-size="9" fill="#007ac9" font-family="GothamRounded-Book, Gotham Rounded" style="isolation: isolate">e</text>
      <text transform="translate(122.7511 288.91362)" font-size="9" fill="#007ac9" font-family="GothamRounded-Book, Gotham Rounded" style="isolation: isolate">, </text>
      <text transform="translate(127.67389 288.91362)" font-size="9" fill="#007ac9" font-family="GothamRounded-Book, Gotham Rounded" style="isolation: isolate">s</text>
      <text transform="translate(132.07532 288.91362)" font-size="9" fill="#007ac9" font-family="GothamRounded-Book, Gotham Rounded" style="isolation: isolate">t</text>
      <text transform="translate(135.58459 288.91362)" font-size="9" fill="#007ac9" font-family="GothamRounded-Book, Gotham Rounded" style="isolation: isolate">op and </text>
      <text transform="translate(169.56903 288.91362)" font-size="9" fill="#007ac9" font-family="GothamRounded-Book, Gotham Rounded" style="isolation: isolate">t</text>
      <text transform="translate(173.07867 288.91362)" font-size="9" fill="#007ac9" font-family="GothamRounded-Book, Gotham Rounded" style="isolation: isolate">erminus</text>
      <text transform="translate(74.19629 308.91344)" font-size="9" fill="#007ac9" font-family="GothamRounded-Medium, Gotham Rounded" style="isolation: isolate">Met</text>
      <text transform="translate(91.10205 308.91344)" font-size="9" fill="#007ac9" font-family="GothamRounded-Medium, Gotham Rounded" style="isolation: isolate">r</text>
      <text transform="translate(94.64844 308.91344)" font-size="9" fill="#007ac9" font-family="GothamRounded-Medium, Gotham Rounded" style="isolation: isolate">olinja ja met</text>
      <text transform="translate(149.95264 308.91344)" font-size="9" fill="#007ac9" font-family="GothamRounded-Medium, Gotham Rounded" style="isolation: isolate">r</text>
      <text transform="translate(153.49854 308.91344)" font-size="9" fill="#007ac9" font-family="GothamRounded-Medium, Gotham Rounded" style="isolation: isolate">oasema</text>
      <text transform="translate(74.19629 318.91344)" font-size="9" fill="#007ac9" font-family="GothamRounded-Book, Gotham Rounded" style="isolation: isolate">Met</text>
      <text transform="translate(90.93164 318.91344)" font-size="9" fill="#007ac9" font-family="GothamRounded-Book, Gotham Rounded" style="isolation: isolate">r</text>
      <text transform="translate(94.37012 318.91344)" font-size="9" fill="#007ac9" font-family="GothamRounded-Book, Gotham Rounded" style="isolation: isolate">olinje och met</text>
      <text transform="translate(157.4209 318.91344)" font-size="9" fill="#007ac9" font-family="GothamRounded-Book, Gotham Rounded" style="isolation: isolate">r</text>
      <text transform="translate(160.85938 318.91344)" font-size="9" fill="#007ac9" font-family="GothamRounded-Book, Gotham Rounded" style="isolation: isolate">o</text>
      <text transform="translate(166.65918 318.91344)" font-size="9" fill="#007ac9" font-family="GothamRounded-Book, Gotham Rounded" style="isolation: isolate">s</text>
      <text transform="translate(171.04004 318.91344)" font-size="9" fill="#007ac9" font-family="GothamRounded-Book, Gotham Rounded" style="isolation: isolate">t</text>
      <text transform="translate(174.66699 318.91344)" font-size="9" fill="#007ac9" font-family="GothamRounded-Book, Gotham Rounded" style="isolation: isolate">a</text>
      <text transform="translate(179.81982 318.91344)" font-size="9" fill="#007ac9" font-family="GothamRounded-Book, Gotham Rounded" style="isolation: isolate">tion</text>
      <text transform="translate(74.1964 328.91362)" font-size="9" fill="#007ac9" font-family="GothamRounded-Book, Gotham Rounded" style="isolation: isolate">Met</text>
      <text transform="translate(90.97231 328.91362)" font-size="9" fill="#007ac9" font-family="GothamRounded-Book, Gotham Rounded" style="isolation: isolate">r</text>
      <text transform="translate(94.4196 328.91362)" font-size="9" fill="#007ac9" font-family="GothamRounded-Book, Gotham Rounded" style="isolation: isolate">o line and met</text>
      <text transform="translate(158.19098 328.91362)" font-size="9" fill="#007ac9" font-family="GothamRounded-Book, Gotham Rounded" style="isolation: isolate">r</text>
      <text transform="translate(161.63831 328.91362)" font-size="9" fill="#007ac9" font-family="GothamRounded-Book, Gotham Rounded" style="isolation: isolate">o </text>
      <text transform="translate(170.15198 328.91362)" font-size="9" fill="#007ac9" font-family="GothamRounded-Book, Gotham Rounded" style="isolation: isolate">s</text>
      <text transform="translate(174.54358 328.91362)" font-size="9" fill="#007ac9" font-family="GothamRounded-Book, Gotham Rounded" style="isolation: isolate">t</text>
      <text transform="translate(178.17932 328.91362)" font-size="9" fill="#007ac9" font-family="GothamRounded-Book, Gotham Rounded" style="isolation: isolate">a</text>
      <text transform="translate(183.34528 328.91362)" font-size="9" fill="#007ac9" font-family="GothamRounded-Book, Gotham Rounded" style="isolation: isolate">tion </text>
      <text transform="translate(74.19629 348.91344)" font-size="9" fill="#007ac9" font-family="GothamRounded-Medium, Gotham Rounded" style="isolation: isolate">Raut</text>
      <text transform="translate(95.21436 348.91344)" font-size="9" fill="#007ac9" font-family="GothamRounded-Medium, Gotham Rounded" style="isolation: isolate">a</text>
      <text transform="translate(100.43945 348.91344)" font-size="9" fill="#007ac9" font-family="GothamRounded-Medium, Gotham Rounded" style="isolation: isolate">tie ja asema</text>
      <text transform="translate(74.19629 358.91344)" font-size="9" fill="#007ac9" font-family="GothamRounded-Book, Gotham Rounded" style="isolation: isolate">Jär</text>
      <text transform="translate(87.99561 358.91344)" font-size="9" fill="#007ac9" font-family="GothamRounded-Book, Gotham Rounded" style="isolation: isolate">n</text>
      <text transform="translate(93.37354 358.91344)" font-size="9" fill="#007ac9" font-family="GothamRounded-Book, Gotham Rounded" style="isolation: isolate">v</text>
      <text transform="translate(98.42822 358.91344)" font-size="9" fill="#007ac9" font-family="GothamRounded-Book, Gotham Rounded" style="isolation: isolate">äg och </text>
      <text transform="translate(131.43115 358.91344)" font-size="9" fill="#007ac9" font-family="GothamRounded-Book, Gotham Rounded" style="isolation: isolate">s</text>
      <text transform="translate(135.81201 358.91344)" font-size="9" fill="#007ac9" font-family="GothamRounded-Book, Gotham Rounded" style="isolation: isolate">t</text>
      <text transform="translate(139.43945 358.91344)" font-size="9" fill="#007ac9" font-family="GothamRounded-Book, Gotham Rounded" style="isolation: isolate">a</text>
      <text transform="translate(144.59277 358.91344)" font-size="9" fill="#007ac9" font-family="GothamRounded-Book, Gotham Rounded" style="isolation: isolate">tion</text>
      <text transform="translate(74.19629 368.91344)" font-size="9" fill="#007ac9" font-family="GothamRounded-Book, Gotham Rounded" style="isolation: isolate">Rail</text>
      <text transform="translate(90.60742 368.91344)" font-size="9" fill="#007ac9" font-family="GothamRounded-Book, Gotham Rounded" style="isolation: isolate">w</text>
      <text transform="translate(98.16699 368.91344)" font-size="9" fill="#007ac9" font-family="GothamRounded-Book, Gotham Rounded" style="isolation: isolate">a</text>
      <text transform="translate(103.21289 368.91344)" font-size="9" fill="#007ac9" font-family="GothamRounded-Book, Gotham Rounded" style="isolation: isolate">y and </text>
      <text transform="translate(130.55957 368.91344)" font-size="9" fill="#007ac9" font-family="GothamRounded-Book, Gotham Rounded" style="isolation: isolate">r</text>
      <text transform="translate(133.97168 368.91344)" font-size="9" fill="#007ac9" font-family="GothamRounded-Book, Gotham Rounded" style="isolation: isolate">ail</text>
      <text transform="translate(143.89111 368.91344)" font-size="9" fill="#007ac9" font-family="GothamRounded-Book, Gotham Rounded" style="isolation: isolate">w</text>
      <text transform="translate(151.45117 368.91344)" font-size="9" fill="#007ac9" font-family="GothamRounded-Book, Gotham Rounded" style="isolation: isolate">a</text>
      <text transform="translate(156.49707 368.91344)" font-size="9" fill="#007ac9" font-family="GothamRounded-Book, Gotham Rounded" style="isolation: isolate">y </text>
      <text transform="translate(164.45996 368.91344)" font-size="9" fill="#007ac9" font-family="GothamRounded-Book, Gotham Rounded" style="isolation: isolate">s</text>
      <text transform="translate(168.84033 368.91344)" font-size="9" fill="#007ac9" font-family="GothamRounded-Book, Gotham Rounded" style="isolation: isolate">t</text>
      <text transform="translate(172.46777 368.91344)" font-size="9" fill="#007ac9" font-family="GothamRounded-Book, Gotham Rounded" style="isolation: isolate">a</text>
      <text transform="translate(177.62109 368.91344)" font-size="9" fill="#007ac9" font-family="GothamRounded-Book, Gotham Rounded" style="isolation: isolate">tion</text>
      <text transform="translate(74.1964 388.91362)" font-size="9" fill="#007ac9" font-family="GothamRounded-Medium, Gotham Rounded" style="isolation: isolate">Suomenlinnan lautta</text>
      <text transform="translate(74.1964 398.91362)" font-size="9" fill="#007ac9" font-family="GothamRounded-Book, Gotham Rounded" style="isolation: isolate">S</text>
      <text transform="translate(79.8214 398.91362)" font-size="9" fill="#007ac9" font-family="GothamRounded-Book, Gotham Rounded" style="isolation: isolate">v</text>
      <text transform="translate(84.83411 398.91362)" font-size="9" fill="#007ac9" font-family="GothamRounded-Book, Gotham Rounded" style="isolation: isolate">eabo</text>
      <text transform="translate(107.16321 398.91362)" font-size="9" fill="#007ac9" font-family="GothamRounded-Book, Gotham Rounded" style="isolation: isolate">r</text>
      <text transform="translate(110.6192 398.91362)" font-size="9" fill="#007ac9" font-family="GothamRounded-Book, Gotham Rounded" style="isolation: isolate">gs</text>
      <text transform="translate(121.07733 398.91362)" font-size="9" fill="#007ac9" font-family="GothamRounded-Book, Gotham Rounded" style="isolation: isolate">f</text>
      <text transform="translate(124.24518 398.91362)" font-size="9" fill="#007ac9" font-family="GothamRounded-Book, Gotham Rounded" style="isolation: isolate">ärjan</text>
      <text transform="translate(74.1964 408.91362)" font-size="9" fill="#007ac9" font-family="GothamRounded-Book, Gotham Rounded" style="isolation: isolate">F</text>
      <text transform="translate(79.9655 408.91362)" font-size="9" fill="#007ac9" font-family="GothamRounded-Book, Gotham Rounded" style="isolation: isolate">erry </text>
      <text transform="translate(100.56599 408.91362)" font-size="9" fill="#007ac9" font-family="GothamRounded-Book, Gotham Rounded" style="isolation: isolate">t</text>
      <text transform="translate(104.06653 408.91362)" font-size="9" fill="#007ac9" font-family="GothamRounded-Book, Gotham Rounded" style="isolation: isolate">o Suomenlinna</text>
      <rect id="a2cf9aba-9cf3-48cc-aee4-7644a2e65f51" data-name="rect494" x="60.60001" y="26.59999" width="161.49998" height="46.40001" fill="none"/>
      <g id="2f717102-6335-4b6f-92d1-4e5325e3066b" data-name="text532" style="isolation: isolate">
        <text transform="translate(60.56421 36.83598)" font-size="12" fill="#007ac9" font-family="GothamRounded-Medium, Gotham Rounded" style="isolation: isolate">K</text>
        <text transform="translate(68.9642 36.83598)" font-size="12" fill="#007ac9" font-family="GothamRounded-Medium, Gotham Rounded" style="isolation: isolate">arttamerkkien selitykset </text>
        <text transform="translate(60.56421 50.83598)" font-size="12" fill="#007ac9" font-family="GothamRounded-Book, Gotham Rounded" letter-spacing="-0.08301em" style="isolation: isolate">T</text>
        <text transform="translate(66.86421 50.83598)" font-size="12" fill="#007ac9" font-family="GothamRounded-Book, Gotham Rounded" style="isolation: isolate">ec</text>
        <text transform="translate(80.76421 50.83598)" font-size="12" fill="#007ac9" font-family="GothamRounded-Book, Gotham Rounded" style="isolation: isolate">k</text>
        <text transform="translate(87.36421 50.83598)" font-size="12" fill="#007ac9" font-family="GothamRounded-Book, Gotham Rounded" style="isolation: isolate">en</text>
        <text transform="translate(101.8642 50.83598)" font-size="12" fill="#007ac9" font-family="GothamRounded-Book, Gotham Rounded" style="isolation: isolate">f</text>
        <text transform="translate(106.16422 50.83598)" font-size="12" fill="#007ac9" font-family="GothamRounded-Book, Gotham Rounded" style="isolation: isolate">örklaring till </text>
        <text transform="translate(180.56421 50.83598)" font-size="12" fill="#007ac9" font-family="GothamRounded-Book, Gotham Rounded" style="isolation: isolate">k</text>
        <text transform="translate(187.26422 50.83598)" font-size="12" fill="#007ac9" font-family="GothamRounded-Book, Gotham Rounded" style="isolation: isolate">artan</text>
        <text transform="translate(60.56421 64.83598)" font-size="12" fill="#007ac9" font-family="GothamRounded-Book, Gotham Rounded" style="isolation: isolate">K</text>
        <text transform="translate(68.76421 64.83598)" font-size="12" fill="#007ac9" font-family="GothamRounded-Book, Gotham Rounded" style="isolation: isolate">e</text>
        <text transform="translate(75.56421 64.83598)" font-size="12" fill="#007ac9" font-family="GothamRounded-Book, Gotham Rounded" style="isolation: isolate">y </text>
        <text transform="translate(86.26421 64.83598)" font-size="12" fill="#007ac9" font-family="GothamRounded-Book, Gotham Rounded" style="isolation: isolate">t</text>
        <text transform="translate(90.9642 64.83598)" font-size="12" fill="#007ac9" font-family="GothamRounded-Book, Gotham Rounded" style="isolation: isolate">o map </text>
        <text transform="translate(132.16422 64.83598)" font-size="12" fill="#007ac9" font-family="GothamRounded-Book, Gotham Rounded" style="isolation: isolate">s</text>
        <text transform="translate(138.06421 64.83598)" font-size="12" fill="#007ac9" font-family="GothamRounded-Book, Gotham Rounded" style="isolation: isolate">ymbols</text>
      </g>
      <g id="39e1ada5-802f-41b6-9f15-246fe34cd5d9" data-name="g542">
        <g id="73467999-b2f4-4d77-a1fd-a816c5d08a48" data-name="g540">
          <line id="0a6631da-6928-4c3e-8b78-79c85aa7fc03" data-name="line534" x1="44.60001" y1="155.10001" x2="52.7" y2="155.10001" fill="none" stroke="#007ec7" stroke-miterlimit="10" stroke-width="0.9921"/>
          <g id="242b7ab2-2d7e-4e9d-929e-15fb5b5e2ff7" data-name="g538">
            <polygon id="f3bf50e2-7d93-41e6-916b-2577c382e746" data-name="polygon536" points="49.9 151.4 58.6 155.1 49.9 158.8 51.5 155.1 49.9 151.4" fill="#007ec7"/>
          </g>
        </g>
      </g>
    </g>
  </g>
</svg>
